<svg id="Pagina_inicia_Movil" data-name="Pagina inicia Movil" xmlns="http://www.w3.org/2000/svg" viewBox="0 0 290 330.5"><defs><style>.cls-1{fill:#fff;}.cls-2{fill:#293549;}.cls-3{fill:#3bab5e;}.cls-4{fill:#f7f8f9;}.cls-5{fill:#424143;opacity:0.4;}.cls-5,.cls-6{isolation:isolate;}.cls-6{fill:#221f1f;opacity:0.1;}</style></defs><title>agencia</title><g id="La_agencia" data-name="La agencia"><path class="cls-1" d="M1005.6,1010.9a14,14,0,0,1,6.3-10.9l132.4-76.4a14,14,0,0,1,12.6,0l132.4,76.4a14,14,0,0,1,6.3,10.9v152.8a14,14,0,0,1-6.3,10.9l-132.4,76.4a14,14,0,0,1-12.6,0l-132.4-76.4a14,14,0,0,1-6.3-10.9V1010.9Z" transform="translate(-1005.6 -922.1)"/><path class="cls-2" d="M1074.8,977.5a8.9,8.9,0,0,1,8.9-8.9h133.9a8.9,8.9,0,0,1,8.9,8.9v219.7a8.9,8.9,0,0,1-8.9,8.9H1083.6a8.9,8.9,0,0,1-8.9-8.9V977.5Z" transform="translate(-1005.6 -922.1)"/><rect class="cls-3" x="78" y="77.5" width="133.9" height="167.77"/><path class="cls-4" d="M1156.1,983.2h-11a0.4,0.4,0,1,1,0-.9h11A0.4,0.4,0,1,1,1156.1,983.2Z" transform="translate(-1005.6 -922.1)"/><path class="cls-4" d="M1159.7,985.6h-18.2a0.4,0.4,0,0,1,0-.9h18.2A0.4,0.4,0,0,1,1159.7,985.6Z" transform="translate(-1005.6 -922.1)"/><path class="cls-4" d="M1156.1,987.9h-11a0.4,0.4,0,0,1,0-.9h11A0.4,0.4,0,0,1,1156.1,987.9Z" transform="translate(-1005.6 -922.1)"/><path class="cls-4" d="M1150.6,1198.1a9.7,9.7,0,1,1,9.7-9.7A9.7,9.7,0,0,1,1150.6,1198.1Zm0-18.5a8.8,8.8,0,1,0,8.8,8.8A8.8,8.8,0,0,0,1150.6,1179.6Z" transform="translate(-1005.6 -922.1)"/><rect class="cls-4" x="89.2" y="86.5" width="111.6" height="31.61"/><rect class="cls-5" x="128.2" y="128.4" width="72.6" height="31.61"/><rect class="cls-5" x="89.2" y="128.2" width="31.9" height="31.89"/><rect class="cls-5" x="128.2" y="167.8" width="72.6" height="31.61"/><rect class="cls-5" x="89.2" y="167.5" width="31.9" height="31.9"/><rect class="cls-5" x="128.2" y="207.1" width="72.6" height="31.61"/><rect class="cls-5" x="89.2" y="206.8" width="31.9" height="31.9"/><path class="cls-6" d="M1288.9,1000l-132.4-76.4a12.7,12.7,0,0,0-6-1.5v330.5a12.8,12.8,0,0,0,6-1.5l132.4-76.4a14,14,0,0,0,6.3-10.9V1010.9A14,14,0,0,0,1288.9,1000Z" transform="translate(-1005.6 -922.1)"/></g></svg>