<svg id="Pagina_inicia_Movil" data-name="Pagina inicia Movil" xmlns="http://www.w3.org/2000/svg" viewBox="0 0 90 90"><defs><style>.cls-1{fill:#009500;}.cls-2{fill:#fff;}</style></defs><title>icono</title><g id="fa-briefcase"><circle class="cls-1" cx="45" cy="45" r="45"/><g id="fa-angle-down"><path class="cls-2" d="M1088.9,1464h-39.3v-8.4a3.5,3.5,0,0,1,3.5-3.5h7.7v-3.5a2.1,2.1,0,0,1,2.1-2.1h12.6a2.1,2.1,0,0,1,2.1,2.1v3.5h7.7a3.5,3.5,0,0,1,3.5,3.5v8.4Zm0,12.6a3.5,3.5,0,0,1-3.5,3.5h-32.3a3.5,3.5,0,0,1-3.5-3.5v-10.5h14.7v3.5a1.4,1.4,0,0,0,1.4,1.4h7a1.4,1.4,0,0,0,1.4-1.4v-3.5h14.7v10.5Zm-14-24.5v-2.8h-11.2v2.8h11.2Zm-2.8,16.8h-5.6v-2.8h5.6v2.8Z" transform="translate(-1025 -1422.4)"/></g></g></svg>