<svg id="Pagina_inicia_Movil" data-name="Pagina inicia Movil" xmlns="http://www.w3.org/2000/svg" viewBox="0 0 148 30"><defs><style>.cls-1{fill:#fff;}.cls-2{fill:#12afaf;}</style></defs><title>logo</title><path class="cls-1" d="M1051.4,38.5V18.3h3.6l3.1,7.9,2.2,5.9h0.1c-0.1-2.1-.4-5.7-0.4-9.4V18.3h3.5V38.5h-3.6l-3.1-7.7a62.1,62.1,0,0,1-2-6.1h-0.1c0.1,2,.2,5.2.2,9.2v4.6h-3.5Z" transform="translate(-1004.2 -13.6)"/><path class="cls-1" d="M1075.5,29.6h-4.6v5.5h5.2v3.4h-9.2V18.3h8.8v3.4h-4.9v4.7h4.6v3.2h0Z" transform="translate(-1004.2 -13.6)"/><path class="cls-1" d="M1081,21.9h-3.6V18.3h11.1v3.6h-3.6V38.5H1081V21.9Z" transform="translate(-1004.2 -13.6)"/><path class="cls-1" d="M1093.2,38.5l-3.5-20.3h4.1l1,8.1c0.3,2.3.5,4.6,0.7,7.1h0.1c0.3-2.5.7-4.7,1.1-7.1l1.4-8.1h3.2l1.4,8c0.4,2.3.7,4.5,1,7.2h0.1c0.3-2.6.5-4.8,0.8-7.2l1-8h3.8l-3.6,20.3h-4.1l-1.2-6.6c-0.3-1.9-.6-4.2-0.9-6.6h-0.1c-0.4,2.4-.7,4.7-1.1,6.7l-1.4,6.6h-3.8Z" transform="translate(-1004.2 -13.6)"/><path class="cls-1" d="M1123.5,28c0,7.6-2.7,10.7-6.6,10.7s-6.4-4.9-6.4-10.4,2.2-10.3,6.7-10.3S1123.5,23.4,1123.5,28Zm-8.9.4c0,4.6.9,6.9,2.5,6.9s2.3-3,2.3-7.1-0.5-6.8-2.3-6.8S1114.6,24,1114.6,28.4Z" transform="translate(-1004.2 -13.6)"/><path class="cls-1" d="M1126,18.6a20.9,20.9,0,0,1,4.3-.4c2.2,0,4.1.3,5.4,1.5a5.4,5.4,0,0,1,1.6,4.2,5.3,5.3,0,0,1-3.1,5.1h0c1.4,0.5,2.1,1.8,2.5,4a33.9,33.9,0,0,0,1.3,5.5h-4.1a27.3,27.3,0,0,1-1-4.8c-0.4-2.5-1-3.2-2.3-3.2H1130v8.1h-3.9v-20H1126Zm3.9,8.8h0.7c1.7,0,2.7-1.4,2.7-3.2s-0.7-2.9-2.5-3h-0.9v6.2Z" transform="translate(-1004.2 -13.6)"/><path class="cls-1" d="M1140.1,18.3h3.9v9.1h0.1l1-2.6,2.7-6.5h4.3l-4.5,8.8,4.6,11.5h-4.3l-2.9-8.4-0.9,1.7v6.7h-4V18.3h0Z" transform="translate(-1004.2 -13.6)"/><g id="Logo"><g id="xamagon"><path id="Logo-2" class="cls-2" d="M1014.1,13.6a2.8,2.8,0,0,0-2.3,1.3l-7.3,12.6a3,3,0,0,0,0,2.6l7.3,12.4a2.6,2.6,0,0,0,2.3,1.1h14.6a2.6,2.6,0,0,0,2.3-1.1l7.3-12.5a2.4,2.4,0,0,0,0-2.6L1031,14.9a2.8,2.8,0,0,0-2.3-1.3h-14.6Zm0.1,7.1h2.6l0.3,0.3,4.3,7.6v0.2h0l4.3-7.7,0.3-.3h2.5a0.5,0.5,0,0,1,.3.6l-4.2,7.5,4.2,7.4a0.4,0.4,0,0,1-.3.5H1026l-0.3-.2-4.3-7.5h-0.1l-4.3,7.5-0.3.2h-2.5a0.3,0.3,0,0,1-.4-0.2,0.4,0.4,0,0,1,.1-0.3l4.2-7.4-4.2-7.5a0.4,0.4,0,0,1,.2-0.5h0V20.7Z" transform="translate(-1004.2 -13.6)"/></g></g></svg>