<svg id="Pagina_inicial_Escritorio" data-name="Pagina inicial Escritorio" xmlns="http://www.w3.org/2000/svg" viewBox="0 0 346.6 316"><defs><style>.cls-1{fill:#d1ecfb;}.cls-2{fill:#57d357;}.cls-3{fill:#103754;}.cls-4{fill:none;}.cls-5{fill:#c1e2de;}.cls-6{fill:#0e303f;}.cls-7{fill:#fff;}.cls-8{fill:#fd6120;}.cls-9{fill:#b7c9cb;}</style></defs><title>mundo</title><g id="Porque_somos_tu_mejor_elección" data-name="Porque somos tu mejor elección"><path class="cls-1" d="M2752.8,1189.2c-87.1,0-158,70.9-158,158s70.9,158,158,158,158.1-70.8,158.1-157.9S2839.9,1189.2,2752.8,1189.2Z" transform="translate(-2564.3 -1189.2)"/><path class="cls-2" d="M2902.5,1390.3c-2,0-4.8,1-4.8,1.7s-2.8,1.9-3.9,2.4-2.7,3.3-3.2,4.2-2.7.7-3.5,1-2.6,1.8-2.6,2.6-0.5.7-1-.2l-1.1,1.1-1.4,1.5c-0.8,2.4-3.3,5.5-4.2,5.7s-1,4.4-1,6.1a8.1,8.1,0,0,0,1.5,4.7v1.4l0.2,2.7a4.8,4.8,0,0,0,1.6,4.3c0.5,0.3,4.3-.7,5.8-1l2-.8a160.8,160.8,0,0,0,16.2-37.7Z" transform="translate(-2564.3 -1189.2)"/><path class="cls-2" d="M2641.5,1394.3c-0.2.5,2.6,3.3,3.6,4.3a29.5,29.5,0,0,1,3.9,7.3,13.1,13.1,0,0,1,0,4.7,8,8,0,0,0,.6,2.4c0.1,0.6-.9,5.1-0.6,7s-2.2,7.6-2,10.6,1.4,6.6,1.8,6.4,0.7,2.6-.1,3-1.9,2.6-1.4,2.7,0,2.4.1,3.3,0.9,6.9,1,8.4,2.3,5.1,2.7,6.4,0.9,3.5,1,3.9l0.3,0.8a10.8,10.8,0,0,1,2.3,1c0.5,0.3,3.9.1,5-.1s0.1-1.2-.3-1.7-0.9-3.2-1.5-3.4-0.8-3.6-.3-4.4,2.5-1.9,2.7-2.6,0.2-3.5-.2-4,0.1-4-.2-5.8,3.1-3.4,3.3-4.8,4-3,4.8-3.6,1.6-4.8,1.1-5.6,1.4-1.6,2.2-1.6l2-.6c0.2,0,1.2-1.8,1.7-2.2s1.6-4.7,2.5-5.3a7.7,7.7,0,0,0,1.7-4,10.6,10.6,0,0,1,1.9-3.6c0.5-.7,4-2.3,4.7-2.5s1.6-5.9,1.8-8a45.8,45.8,0,0,1,1.4-5.5c0-.7,1.1-1.2,1.4-1.5s1-2.8,1.6-3.4,2.5-3.1,2.5-3.6a18.1,18.1,0,0,1,.7-3.2v-3.5c-0.6-1.7-2.5-3.9-3-3.3s-2.6-1.5-3.7-1.9a18.5,18.5,0,0,0-4.5-.7c-0.7,0-3.1-1.9-4.2-2.3a37.9,37.9,0,0,1-4.3-1.1c-0.5-.3-1.1-4.4-3.4-5.8s-6.1-4.5-6.6-5.7-4.7-3.5-6-4.3-3.3-.9-3.5-0.6-1.9-2.3-2.7-3-3.4-1.2-3.5-.7-1.8.2-2.2-.2-1.7.2-2.4,0.5-2.7,3.4-3.7,4.2-2.2-.7-2.8-1a6.8,6.8,0,0,0-3.7,1c-0.7.5-2.2-3.4-1.8-5.2s-1.6-5.3-3.2-5.5-1.9-3.9-1.7-5.2-2.7-2.3-3.5-2.4-2.6,1.8-3,2.8-7.3-1.2-6.5-5.5,4.1-8.5,4.9-9,5.2-.7,6.2-0.1a1.8,1.8,0,0,0,2-.2,13.9,13.9,0,0,1,4.9.5c1,0.5,2.6,4.7,3.7,5.1s1.5-2.7,1.7-3.5a10.2,10.2,0,0,0-.8-3.3c-0.2-.6,1.8-5.7,3.5-6.5s3.5-3.7,3.3-4.2,1.4-.9,1.7-1.1,0-4.3.6-5.2a19.5,19.5,0,0,1,4.9-3.2c1-.5,1.7-3,1.4-3.5s2.6-3,4.2-3.5,2.8,0.9,2.5,1l3.3-1.8c0.9-.6,0-2.6-0.7-3.2s-0.2-2.7.6-3a2.9,2.9,0,0,0,1.2-2.5c-0.2-.3,3.4.3,4.8-0.7s0.3,2.4-.6,3.9a1.6,1.6,0,0,0,1.4,2.5,1.5,1.5,0,0,1,1.5,1.1c0.1,0.3,1.5-.5,2.4,0s1.5-1.2,1.5-2-2.2-2.3-2.5-3.3a52.3,52.3,0,0,1-.5-7.4c0-1-1.5-2.8-1.9-2.5s-1.4-2.8-2.2-3.5a4,4,0,0,1-.9-2.7c0-.5-2.5-3.2-3.2-4.4s-1.5-1-1.6-.5-1.8.7-2.6,0.6-1.4-3-1.4-4-3.3-1.2-3.9-2.2-2.7-.5-3.1-1a3.6,3.6,0,0,0-2.6-.9c-0.3.2-.2,8.1-0.6,10.1s-2.2,4-2.8,3.9-0.2,1.5.1,1.4-1.2,2.3-1.5,3.9-1.8,0-2-1.5-1.8-3.4-2.2-3-1.4-.6-1.8-0.2-3.4-1.7-4.7-2.4-1.8-4.3-2.6-4.7-0.1-.8-0.1-1.4,2.4-2.7,3.1-3.5a56.3,56.3,0,0,1,4.3-5c1-.8,1.8-2.6,1.6-3s4.4-1.8,5.7-2.2,2.3-3.9,2.5-4.9a4.2,4.2,0,0,0-1.4-3.1c-0.6-.2,1.7-0.3,2.5.1s3.1-.7,4.1-0.2l4.2,2.5-0.2,2.5-0.6,4.3c-3.6,1.5-4.7,4.1-3.4,4s7,2.5,8.6,3.6,2.2-1.7,2.6-2.6a7.6,7.6,0,0,0,0-4.2c-0.5-.6,1.8-0.3,2.5.2s1.4-.6,1.8-0.9,0.7-2.6,1-3.1-1-.9-1.1-1.6-2.6-1.7-3.4-2.2a2,2,0,0,1-.6-2.5c0.3-.3-0.2-2.6-0.7-3.3s-3.1-1.4-4-1.4-1.8-2-2.4-2.4a16.6,16.6,0,0,0-4.9-.5c-0.8.2-2.4-2.5-3.9-1.6s-3-.9-3.6-1.4-4.1,3.3-4,5.8,1.2,5,1.8,5.1-0.1,2.4-.7,3.1-2-.7-1.5-1.2-1.5-3.3-2.2-4.3-2.3-1.5-3.4-1.9l-2,2.3a5.8,5.8,0,0,1,.2,3.1c-0.5,1.6-1.8,1.8-1.8,1.1a1.9,1.9,0,0,0-1.5-.6,157.1,157.1,0,0,0-35.6,82.6,7.5,7.5,0,0,1,1.8,2.6c0.5,1.4,2.8,2.3,3.3,2.6s0.6-2.6.2-3.4,0.6-1.1.6-.7,2.3,3.1,3,4.1,1.5,6.9,2.3,8.2,7.6,4,9.9,4.4a12.5,12.5,0,0,1,5.5,3.6c0.5,0.7,3.4,1,4,1.4a31.5,31.5,0,0,1,2.7,2.7,4,4,0,0,1,1.1,1.9c0,0.3,3.9,1.8,4.9,2.8a2.4,2.4,0,0,0,2.8.3c0.2-.5,1,2,1.5,3s0.5,3,.1,3.3-0.8,4.2-1.5,5-2,6.5-1.7,7.6a8.4,8.4,0,0,0,3,3.7,0.9,0.9,0,0,1,.3,1.3l-0.4.3c-0.6,0-.3,5.6,1.1,6.4S2641.8,1393.9,2641.5,1394.3Z" transform="translate(-2564.3 -1189.2)"/><path class="cls-3" d="M2660.1,1298.1" transform="translate(-2564.3 -1189.2)"/><path class="cls-2" d="M2649.3,1231.4c1.8-.3,5-0.9,5.2-1.4a4.8,4.8,0,0,0-.1-2.2h0.9c0.7,0,1.9-3.9,2.6-4.8s5-2.3,6-2.8,3.3-2.7,4.1-3.1,2.2-2.3,1.9-2.6,3-2.3,4.1-2.7,1.8-1.8,1.4-1.9-6.8,3.4-12.8,6.8a177.8,177.8,0,0,0-19.5,15.6Z" transform="translate(-2564.3 -1189.2)"/><path class="cls-2" d="M2763.7,1428.1c1.9-1.1,5.5-6.2,6.6-7.3s1.9-4.9,2.2-5.7a6.5,6.5,0,0,1,2.5-2.4c0.6-.2,2.6-8.6,4.4-10.6s3.9-10.8,3.6-14.1,1.1-9.3,1.6-10.8a16.6,16.6,0,0,1,3.3-4.7,95.3,95.3,0,0,0,6.4-9.2c1.4-2.3,2.7-7.3,2.4-8.5s-3.3-2-3.9-1.4-3.4,1-4.3,1-3-4.9-4.2-5.8-2.4-6.6-3.2-7.6a52.7,52.7,0,0,0-3.4-4.3c-0.7-.6-0.8-3.5-0.9-4.3s1.2,0.5,1.5,1.7,3.5,5.9,4.5,7.5,3.7,6.7,4.4,8.3,6.7,0.8,8.7-.1,4.4-2.5,4.5-3.1,3.2-1.9,4.1-2.6,1.6-4.3,2.2-4.9-0.5-4.1-1.1-5.1-3.7-1.8-4.4-1.5-1.9-2.3-2.5-3.3-2.8-2.3-3.1-3a2.5,2.5,0,0,1,1-2c0.3-.2,4.8,2.8,6,4.4a25,25,0,0,1,3,4.9c0.2,0.6,3.7.7,4.5,0.1a1.2,1.2,0,0,1,1.8.1l0.2,0.2h1l3.9-.6a7.5,7.5,0,0,1,2.3,4.1,4.4,4.4,0,0,0,1.8,2.2c0.7,0.1,1.2,2.6,1.5,3.3a54.9,54.9,0,0,1,2.8,5.9,33.1,33.1,0,0,0,2.7,5.5,12.5,12.5,0,0,1,.8,3.9,2.6,2.6,0,0,0,2.3,1.8c0.8-.1,2.6-5.6,3.1-7.6s1.8-3.7,2.2-3.7,0.7-1.1.7-1.6,2.2-.3,2.4-0.9,0.8-4.2,1.6-4.8a34.2,34.2,0,0,1,4.5-2.7c0.9-.3,3.5,1.8,4.1,2.8a8.5,8.5,0,0,1,.8,4c-0.2.3,1.2,2.6,2.6,2.6s1.7,1.7,1.8,2.3,1.8,2.4,2.2,3.2a7.5,7.5,0,0,1,0,3.5,18.1,18.1,0,0,0,.1,4.2c0.2,0.8,4.3,5,5.9,6.2s2.3-2.6,1.5-3.7-3.5-4-4.1-4.8-0.7-4.2-.5-5.1,2.4,0.5,3.2,1.1a6.6,6.6,0,0,1,2,2.6c0,0.5,5.6-2.6,5.8-5.9s2-7.2,2.2-8.1a2.4,2.4,0,0,0-1-2.2c-0.5-.1.8-2.5,2.4-2.5s5.2-4.1,6.1-5.8a13.2,13.2,0,0,1,2.8-3.2,24.3,24.3,0,0,0,1.6-5.7c0.2-1.6-.9-4.1-1-5a13.5,13.5,0,0,0-1.8-3.3,6.9,6.9,0,0,1-.5-3.3c0.1-.3,1.6-0.8,1.7-1.2s1.7-2,1.6-2.8,0.9,1,1.7,1.6,1.5,4.7,2.4,5,4.5-4.2,4.1-7.3,1-6.9,1.9-7.3,2.4-2.7,3.5-4.4a158.1,158.1,0,0,0-39-61.3h-0.6l-1.4-.2c-2.3-.5-3.5-2.8-3.2-3.4a1.5,1.5,0,0,0,0-1c-1.2-1.1-2.5-2.3-3.9-3.3h-2.8a12.5,12.5,0,0,1-4.8-1.5c-0.5-.5-2.3.5-2.4,1.5s-3.2,1.4-3.4,2.2a1.8,1.8,0,0,1-2.2.5c-0.2-.5-3.2,1-4.5,1.1a20.7,20.7,0,0,0-4.7,1.6,7,7,0,0,0-2.4,2.4,7.4,7.4,0,0,1-2.6,1.8c-0.6.2-.5,2.8,0.2,3.3s-1.4-.3-2.4-0.8-1.9,1.1-2.3,1.7-1.1-.3-1.1-1.1-2.4-1.4-2.6-.8-1.9-.2-2.6-0.6-3.6,2.7-4.8,3.9-6.4,1.9-7.3,1.6-1.9,2.3-1.1,2.5h-3.2a27.7,27.7,0,0,0-7.5,2.8,1.2,1.2,0,0,1-2-.8c0-.7-1.8-1.2-2.3-1.4s-1.6,3.5-2.5,4.2-2-2.8-4.3-3.5-5.7-2.7-6.7-3-3-2.3-3.5-3-3.4-1-4.3-1-3.9,1.7-4.7,2.3-1.9.5-2.4,0.8l-5,4.4c-1.2,1-3.5,5.3-4.2,6.5a2.7,2.7,0,0,1-2.2,1.2,2.2,2.2,0,0,0-.8,1.6c0,0.5-3.7,2.4-4.2,4.1s0.5,5.7.5,7,1.4,4.2,2.4,4.2,0.6,2.4.2,3.1,0.7,1.4.6,1.9-2.6,1.4-3.4,1.6a5.7,5.7,0,0,0-2.3,2.8c-0.1.6-2.6,1-3.5,1.8a10.3,10.3,0,0,1,.7-1.8,3.1,3.1,0,0,0-.6-2.8c-0.3-.3-0.6-4.9-1.2-5.9a25.5,25.5,0,0,0-2.6-3c-0.3-.3.2-1.5,0.6-2s-2.2-.8-2.7-0.5-1,4.9-1.2,6.1a3.9,3.9,0,0,0,1.6,3.2c0.5,0.1.2,2.3-.6,2.4s-1.6,3.3-1.1,4.1-0.6,2.2-1,2.5,3.2,0.1,4.9.1a4.4,4.4,0,0,1,2.8.8c-0.1.1-3.2,0.6-3.7,1.2s-2.6,2-3,2.6,0.7,1.7,1.5,1.7,1.8,3,2.5,3.5a2.5,2.5,0,0,1,.1,2.6c-0.2.5-4.4-.2-5.9,0.1s-3.5,3.6-3.6,4.9a32.3,32.3,0,0,0,.5,5.8c0.1,1,3.4,1.6,4.1,2s3.7,0,4.4.3,2.7-3.2,3.2-4.8,3.7-4.5,4.4-5.7,4.2-.9,5.1-1.5,0.5,2.7.8,4.5,3.9,1.6,3.3-.1,0.3-2.4.5-1.8,3.4,1.9,4.1,2.8,0.5,3-.2,3-0.8,2.2,0,2.5,1.8-2.5,2.6-3,1.5-2.2,1.1-2.3,0.7-1.7,1.1-1.1a20.3,20.3,0,0,0-3.2-4.8c-1.5-1.5-.3-0.8,2.2,1.4l1.8,2.5c0.3,0.5.8,1.8,1.1,2.3l0.5,0.7a18.4,18.4,0,0,1,.7,4,2.6,2.6,0,0,0,2.3,1.8,1.5,1.5,0,0,1,1.4.5c-0.1.1,0.6,1.7,1.4,1.7s1.2-2.2.3-2.2-0.7-3.2-.8-4.7,0.6-2.5.9-2.5,0,2.8,0,3.5a11,11,0,0,0,.8,2.8l0.9,0.7,1.9,1.5c2.8-.8,6.7-0.1,6.5.5s2,0.7,2.2-.2,0.2,0.1.2,0.7-1.8,3.2-2.2,4.3-6.9.3-9.8,0.1-7,.7-7.3,1.6-4.7-1.9-6.7-2.7-3.6-3.9-4-4.3,0.3-1.4.1-2-4.8-.7-6.1-0.2-8.3,1.2-9.9,1.9-4.1,0-4.9-.1-2.6,2.2-3.5,2.5-2,3.6-2.6,7.2l-1.2,2.4-0.8,1.6c-2.3,1.7-4.8,7.5-5.6,8.7s-1.4,9.5-1.4,12.4,2.4,8.7,3.2,10.5,4.9,5.2,6.4,6.1,6,1,7.5,1a4.4,4.4,0,0,0,3.7-3.2l2.2,0.2h1c0,1.2,3.3,2.2,4.1,2.6a6.2,6.2,0,0,0,3.5-.1c0.6-.1,1.4,5.6.9,7.3s1.1,7.5,1.6,9.3,2.5,6.6,2.6,8.3-1.1,7.5-1.4,9.5,2.5,7.6,3.2,9.5a35.2,35.2,0,0,1,1.2,7c0,0.9,3,6.8,3.6,9.2S2761.6,1429.3,2763.7,1428.1Z" transform="translate(-2564.3 -1189.2)"/><path class="cls-2" d="M2893.8,1356.3c0.1,0.5,2-1,3.2-1.2s1.8-3.2.9-3.4-1.9-2.6-2.6-2.8-1.8,1-1.8,1.9-2,1.2-2.5,2-0.3,1.2,0,1.2A10.4,10.4,0,0,1,2893.8,1356.3Z" transform="translate(-2564.3 -1189.2)"/><path class="cls-2" d="M2891.6,1373c0.6-.2,0-3.2-1.2-3.4s-4.4,4-3.9,6.4,1.2,2.3,1.6,1.7,2.3,0.3,2.8.5,0.6-.3,0-1.2S2891,1373.3,2891.6,1373Z" transform="translate(-2564.3 -1189.2)"/><path class="cls-2" d="M2885.1,1370.1c0.1-1,.3-4.4.5-5.1s-1.8-2.6-2.8-3-4.1,6.5-6.4,7.7-3.1,5.5-2.5,6.4,5.3,1.5,6.1,2.2,1.7-.1,2.3-0.2,0.3-.5.1-0.6,1.6-2,1.9-3.3A31.3,31.3,0,0,0,2885.1,1370.1Z" transform="translate(-2564.3 -1189.2)"/><path class="cls-2" d="M2872.1,1381.6c-1.7-.7-3.9.3-4,1s6.8,1.8,9.2,2.4,3.7,0.8,3.3.5Z" transform="translate(-2564.3 -1189.2)"/><path class="cls-2" d="M2886.6,1335.6c0.6-.8-0.8-4.4-1.5-3.6s-0.1,3,0,3.7S2886,1336.4,2886.6,1335.6Z" transform="translate(-2564.3 -1189.2)"/><path class="cls-2" d="M2890.7,1343.5c0.5-.9-0.5-1.9-2-2.3s-1.2,4.2-.6,4.8S2890.3,1344.4,2890.7,1343.5Z" transform="translate(-2564.3 -1189.2)"/><path class="cls-2" d="M2898.7,1371.9c1.8,1.2,5.9.7,6-1.7C2902.9,1369,2898.6,1369.2,2898.7,1371.9Z" transform="translate(-2564.3 -1189.2)"/><path class="cls-2" d="M2897.7,1315.6a2.6,2.6,0,0,0-.9,2.4h-0.3c-0.6,0-.7,2.4,0,2.8s2.2-1.8,3-2.4a3.9,3.9,0,0,1,2.6-.7,7.6,7.6,0,0,0,3.1-.9,2.7,2.7,0,0,0,.9-1c-0.3-1.7-.8-3.4-1.1-5.2l-2,1.5Z" transform="translate(-2564.3 -1189.2)"/><path class="cls-3" d="M2855.9,1364.2" transform="translate(-2564.3 -1189.2)"/><path class="cls-2" d="M2867.3,1374.8a20.9,20.9,0,0,0-4.8-5.6l-0.7-1.2-0.8-1.4c-0.7-1.5-3-2.6-3.2-3.1s-0.9,1.2-1.7.8l2.4,1.7c2,1.5,6.1,11.8,7.2,12.5S2867.9,1376.2,2867.3,1374.8Z" transform="translate(-2564.3 -1189.2)"/><path class="cls-2" d="M2834.7,1358.1c-0.6,1.1,3,3.6,3.3,3.1a7.5,7.5,0,0,0-1-4C2836.2,1356.5,2835.3,1356.9,2834.7,1358.1Z" transform="translate(-2564.3 -1189.2)"/><path class="cls-2" d="M2786.9,1413c0.1,1.2,2.6,2.2,3.3,1.9s2.7-3.9,3-4.9a31.9,31.9,0,0,0,.6-3.9,5,5,0,0,1,.6-1.9,7.6,7.6,0,0,0,1-2.7c0.2-1.4-1.5-7.8-1.5-9s-1.2.6-1.6,1.7-3.5,3.5-4.3,4.4-1.5,4.2-1.1,4.8a7.3,7.3,0,0,1-.6,3.4C2785.8,1407.6,2786.7,1411.9,2786.9,1413Z" transform="translate(-2564.3 -1189.2)"/><path class="cls-2" d="M2670.5,1458h2.2C2672.9,1455.6,2670.4,1456,2670.5,1458Z" transform="translate(-2564.3 -1189.2)"/><path class="cls-2" d="M2728.4,1213.3a7.3,7.3,0,0,1-3.6-.8,8.7,8.7,0,0,0-4.9-.3c-1,.5-0.3-2.5,1-2.7s0.2-2.3-1.2-2.3-5.2-.6-6-0.3a14.7,14.7,0,0,1-3.2-.7c-0.6-.1-5.1,1.4-7.2,1.2a48.3,48.3,0,0,0-8.4.5c-1.1.2-1.9,2.5-1.7,3.3s-5,.8-6.6.8-10.3,1.8-12.6,3.1-4,4.4-3.3,4.4-1.2,1.8-2.5,2.3-4.1.6-4.8,1.2,0.7,1.1.9,1.6,1-.3,1.8.1,3.3,0.6,4,.9-2.2.8-3.4,0.9-1,2.6,0,3.1,3.9,0.7,4.1.2,3.3,0.5,4.7.7,2.4,3.5,2.8,4.3,0.5,3.3.5,4.1,2.4,2,2.8,1.6,0.3,1.1-.7,1-0.3,2.7.9,3.2,0.3,2.2-.3,2.7-0.3,2.2-1,2.8,2.6,6.4,2.5,9.3,1.8,5.3,2.5,5.3,3.1,0.6,3.4,1.2,1.5-.5,1.9-0.9a29.2,29.2,0,0,0,2.2-3.2c0.8-1.2,2.4-7.2,2.6-7.8s3-.2,3.6-0.6l3-2.2c0.5-.5,4.4-2,5.6-2.8s2.8-4.1,3.7-4.9-0.5-.5-1.5-1.1a1.1,1.1,0,0,1-.4-1.5l0.2-.3c0.2-.3,3.5.5,4.5,0.9s3.2-1,2.4-1.6-0.3-.6,0-0.3,0.8-1.9.5-2.4,3.2-3.1,2.6-5.6,0.9-5.1,1.9-5.1,0.7-2.8-.6-3.1,0-.5.5-0.9a7.2,7.2,0,0,0,.7-3.4c-0.2-.5,1.8-1,2.2-1.6a9.7,9.7,0,0,1,3.5-1.8C2728.7,1215.6,2729.2,1213.3,2728.4,1213.3Z" transform="translate(-2564.3 -1189.2)"/><path class="cls-2" d="M2748.9,1215.6c-1.1-.3-3.4.9-3.1,1.6s-1.8-.9-3.3-0.1-1.9,3.4-1.2,3.7,1.1,2.4,1.1,2.8,2.8,0.1,3.6-.5,0.6,2-.1,2.8,0.2,2.2,1,2.3,1.8,1.9,2.7,1.9,2.3-3.2,2.5-4.3,3.1-.2,4.3.1,1.7-4.3.3-5.1-3.1-.3-3.6-0.9a4.3,4.3,0,0,0-2.2-1.1C2750.6,1218.8,2750,1215.9,2748.9,1215.6Z" transform="translate(-2564.3 -1189.2)"/><path class="cls-2" d="M2759.9,1217.9a7.8,7.8,0,0,0,5.2-2c0.6-.5-6.1-1.8-8.7-1.9s-4.5.2-4.5,0.8S2757.8,1217.5,2759.9,1217.9Z" transform="translate(-2564.3 -1189.2)"/><path class="cls-2" d="M2719.2,1278.2c-0.6-.2-0.9,1.9-0.8,2.7s2.2,0.8,3.1.6a1.8,1.8,0,0,0,1.5-1.6c0-.7-1.2-4-1.7-4S2719.8,1278.4,2719.2,1278.2Z" transform="translate(-2564.3 -1189.2)"/><path class="cls-2" d="M2725.8,1252.4c-0.5-.8-3.9-0.7-4.8-0.7a12,12,0,0,1-4-1.5c-0.6-.6-0.8,2.2-1.6,2.5s0.5,0.8.7,0.6,0,1.4-.5,1.9,2.3,0.9,2.6,1.8a2.3,2.3,0,0,0,2.4,1.2c1-.1,3.1-1.2,3.9-1.4S2726.3,1253.3,2725.8,1252.4Z" transform="translate(-2564.3 -1189.2)"/><path class="cls-2" d="M2799.3,1232.4c1.1-1.1,6.1-2.8,6.7-4.1a1.6,1.6,0,0,0-.6-2.2h-0.2a1.7,1.7,0,0,0-1.2.8c-0.1.2-5.8,1.5-7.5,2.4a18.9,18.9,0,0,0-4.4,2.8c-0.7.7-1.9,6.4-2.3,6.9s1.8,2.8,2.8,3.5a5.2,5.2,0,0,0,2.8.2c0.5-.1-0.5-4-1-5.3S2798.2,1233.7,2799.3,1232.4Z" transform="translate(-2564.3 -1189.2)"/><path class="cls-2" d="M2793.3,1217.8c1.8,1.8,2.8-.8,4.9-0.6C2798.2,1213.3,2793.1,1214.8,2793.3,1217.8Z" transform="translate(-2564.3 -1189.2)"/><path class="cls-2" d="M2829.5,1218.6c0,0.7,5.1,1.2,6.7.9s-0.3-2.6-2.5-2.5S2829.5,1217.9,2829.5,1218.6Z" transform="translate(-2564.3 -1189.2)"/><path class="cls-2" d="M2640.5,1257.2c-0.6.5,0,3.1,0.9,3.1s2.7-3.9,4-3.1,2.2,1,1.9.7-3.9-1.9-4.3-2.3S2641.1,1256.7,2640.5,1257.2Z" transform="translate(-2564.3 -1189.2)"/><path class="cls-2" d="M2653.8,1344c0,0.5,2.3.3,2.6-.3s0.1-1.2-.5-1.2A3.6,3.6,0,0,0,2653.8,1344Z" transform="translate(-2564.3 -1189.2)"/><path class="cls-2" d="M2643.7,1340.2c1-.2.6,1.5,0.8,2.2s2.8,1.1,3.4,1.6,1.8-.8,2.8-0.7-0.3-3.6-2-3.5-3.1-1.6-3.5-1.8a18.9,18.9,0,0,1-3-1.8c-0.6-.5-5-0.8-6.5-0.8a4.7,4.7,0,0,0-3.4,2c-0.2.5,2.4,0.9,3.1,0.5s4.2,0.5,5,1.2A4.2,4.2,0,0,0,2643.7,1340.2Z" transform="translate(-2564.3 -1189.2)"/><path class="cls-2" d="M2638.9,1344c0,0.5,2.3.1,2.8,0.1s0.6-.5,0-0.8S2638.9,1343.5,2638.9,1344Z" transform="translate(-2564.3 -1189.2)"/><path class="cls-2" d="M2640.5,1332.2c-0.6-.2-1,0.7-1,1.1a0.8,0.8,0,0,0,.7.8C2640.6,1334.1,2641.2,1332.4,2640.5,1332.2Z" transform="translate(-2564.3 -1189.2)"/><path class="cls-2" d="M2645.4,1332.5a1.9,1.9,0,0,0-1.5-.8c-0.3,0-.5.7-0.5,1.7S2645.5,1332.9,2645.4,1332.5Z" transform="translate(-2564.3 -1189.2)"/><path class="cls-2" d="M2648.8,1337.8c0.9-.5,1-1.5.5-1.5s-1.6-1.6-2.2-1.8-1,1-1,1.5a0.7,0.7,0,0,0,.6.8h0.1C2647.2,1336.7,2647.9,1338.3,2648.8,1337.8Z" transform="translate(-2564.3 -1189.2)"/><path class="cls-2" d="M2905.7,1374c-0.5.2-2.7,0.5-3.1,0.1s-0.7.9-1.2,1.1a0.6,0.6,0,0,0,.6,1c0.8-.3,2.7.9,4.4,2,0.3-1.7.7-3.5,0.9-5.3Z" transform="translate(-2564.3 -1189.2)"/><path class="cls-2" d="M2641.5,1394.3c-0.2.5,2.6,3.3,3.6,4.3a29.5,29.5,0,0,1,3.9,7.3,13.1,13.1,0,0,1,0,4.7,8,8,0,0,0,.6,2.4c0.1,0.6-.9,5.1-0.6,7s-2.2,7.6-2,10.6,1.4,6.6,1.8,6.4,0.7,2.6-.1,3-1.9,2.6-1.4,2.7,0,2.4.1,3.3,0.9,6.9,1,8.4,2.3,5.1,2.7,6.4,0.9,3.5,1,3.9l0.3,0.8a10.8,10.8,0,0,1,2.3,1c0.5,0.3,3.9.1,5-.1s0.1-1.2-.3-1.7-0.9-3.2-1.5-3.4-0.8-3.6-.3-4.4,2.5-1.9,2.7-2.6,0.2-3.5-.2-4,0.1-4-.2-5.8,3.1-3.4,3.3-4.8,4-3,4.8-3.6,1.6-4.8,1.1-5.6,1.4-1.6,2.2-1.6l2-.6c0.2,0,1.2-1.8,1.7-2.2s1.6-4.7,2.5-5.3a7.7,7.7,0,0,0,1.7-4,10.6,10.6,0,0,1,1.9-3.6c0.5-.7,4-2.3,4.7-2.5s1.6-5.9,1.8-8a45.8,45.8,0,0,1,1.4-5.5c0-.7,1.1-1.2,1.4-1.5s1-2.8,1.6-3.4,2.5-3.1,2.5-3.6a18.1,18.1,0,0,1,.7-3.2v-3.5c-0.6-1.7-2.5-3.9-3-3.3s-2.6-1.5-3.7-1.9a18.5,18.5,0,0,0-4.5-.7c-0.7,0-3.1-1.9-4.2-2.3a37.9,37.9,0,0,1-4.3-1.1c-0.5-.3-1.1-4.4-3.4-5.8s-6.1-4.5-6.6-5.7-4.7-3.5-6-4.3-3.3-.9-3.5-0.6-1.9-2.3-2.7-3-3.4-1.2-3.5-.7-1.8.2-2.2-.2-1.7.2-2.4,0.5-2.7,3.4-3.7,4.2-2.2-.7-2.8-1a6.8,6.8,0,0,0-3.7,1c-0.7.5-2.2-3.4-1.8-5.2s-1.6-5.3-3.2-5.5-1.9-3.9-1.7-5.2-2.7-2.3-3.5-2.4-2.6,1.8-3,2.8-7.3-1.2-6.5-5.5,4.1-8.5,4.9-9,5.2-.7,6.2-0.1a1.8,1.8,0,0,0,2-.2,13.9,13.9,0,0,1,4.9.5c1,0.5,2.6,4.7,3.7,5.1s1.5-2.7,1.7-3.5a10.2,10.2,0,0,0-.8-3.3c-0.2-.6,1.8-5.7,3.5-6.5s3.5-3.7,3.3-4.2,1.4-.9,1.7-1.1,0-4.3.6-5.2a19.5,19.5,0,0,1,4.9-3.2c1-.5,1.7-3,1.4-3.5s2.6-3,4.2-3.5,2.8,0.9,2.5,1l3.3-1.8c0.9-.6,0-2.6-0.7-3.2s-0.2-2.7.6-3a2.9,2.9,0,0,0,1.2-2.5c-0.2-.3,3.4.3,4.8-0.7s0.3,2.4-.6,3.9a1.6,1.6,0,0,0,1.4,2.5,1.5,1.5,0,0,1,1.5,1.1c0.1,0.3,1.5-.5,2.4,0s1.5-1.2,1.5-2-2.2-2.3-2.5-3.3a52.3,52.3,0,0,1-.5-7.4c0-1-1.5-2.8-1.9-2.5s-1.4-2.8-2.2-3.5a4,4,0,0,1-.9-2.7c0-.5-2.5-3.2-3.2-4.4s-1.5-1-1.6-.5-1.8.7-2.6,0.6-1.4-3-1.4-4-3.3-1.2-3.9-2.2-2.7-.5-3.1-1a3.6,3.6,0,0,0-2.6-.9c-0.3.2-.2,8.1-0.6,10.1s-2.2,4-2.8,3.9-0.2,1.5.1,1.4-1.2,2.3-1.5,3.9-1.8,0-2-1.5-1.8-3.4-2.2-3-1.4-.6-1.8-0.2-3.4-1.7-4.7-2.4-1.8-4.3-2.6-4.7-0.1-.8-0.1-1.4,2.4-2.7,3.1-3.5a56.3,56.3,0,0,1,4.3-5c1-.8,1.8-2.6,1.6-3s4.4-1.8,5.7-2.2,2.3-3.9,2.5-4.9a4.2,4.2,0,0,0-1.4-3.1c-0.6-.2,1.7-0.3,2.5.1s3.1-.7,4.1-0.2l4.2,2.5-0.2,2.5-0.6,4.3c-3.6,1.5-4.7,4.1-3.4,4s7,2.5,8.6,3.6,2.2-1.7,2.6-2.6a7.6,7.6,0,0,0,0-4.2c-0.5-.6,1.8-0.3,2.5.2s1.4-.6,1.8-0.9,0.7-2.6,1-3.1-1-.9-1.1-1.6-2.6-1.7-3.4-2.2a2,2,0,0,1-.6-2.5c0.3-.3-0.2-2.6-0.7-3.3s-3.1-1.4-4-1.4-1.8-2-2.4-2.4a16.6,16.6,0,0,0-4.9-.5c-0.8.2-2.4-2.5-3.9-1.6s-3-.9-3.6-1.4-4.1,3.3-4,5.8,1.2,5,1.8,5.1-0.1,2.4-.7,3.1-2-.7-1.5-1.2-1.5-3.3-2.2-4.3-2.3-1.5-3.4-1.9l-2,2.3a5.8,5.8,0,0,1,.2,3.1c-0.5,1.6-1.8,1.8-1.8,1.1a1.9,1.9,0,0,0-1.5-.6l-2,2.6-2,2.6-2,2.8-1.8,2.5-2.6,3.9-2.4,3.7c-0.7,1-1.2,2.2-1.9,3.3a12.7,12.7,0,0,0-1.2,2.3l-1.9,3.5-1,2c-1.4,2.7-2.7,5.6-4,8.5v0.2l-1.7,4.3-0.7,1.6-1.6,4.4-0.2.7a156.3,156.3,0,0,0-4.4,15.3c-0.1.3-.1,0.7-0.2,1a156.6,156.6,0,0,0-2.8,16.7h0a7.5,7.5,0,0,1,1.8,2.6c0.5,1.4,2.8,2.3,3.3,2.6s0.6-2.6.2-3.4,0.6-1.1.6-.7,2.3,3.1,3,4.1,1.5,6.9,2.3,8.2,7.6,4,9.9,4.4a12.5,12.5,0,0,1,5.5,3.6c0.5,0.7,3.4,1,4,1.4a31.5,31.5,0,0,1,2.7,2.7,4,4,0,0,1,1.1,1.9c0,0.3,3.9,1.8,4.9,2.8a2.4,2.4,0,0,0,2.8.3c0.2-.5,1,2,1.5,3s0.5,3,.1,3.3-0.8,4.2-1.5,5-2,6.5-1.7,7.6a8.4,8.4,0,0,0,3,3.7,0.9,0.9,0,0,1,.3,1.3l-0.4.3c-0.6,0-.3,5.6,1.1,6.4S2641.8,1393.9,2641.5,1394.3Z" transform="translate(-2564.3 -1189.2)"/><line class="cls-4" x1="95.8" y1="108.8" x2="95.8" y2="108.8"/><path class="cls-2" d="M2649.3,1231.4c1.8-.3,5-0.9,5.2-1.4a4.8,4.8,0,0,0-.1-2.2h0.9c0.7,0,1.9-3.9,2.6-4.8s5-2.3,6-2.8,3.3-2.7,4.1-3.1,2.2-2.3,1.9-2.6,3-2.3,4.1-2.7,1.8-1.8,1.4-1.9-6.8,3.4-12.8,6.8h-0.1l-5.1,3.6-3.3,2.6-1.7,1.4-3.9,3.3-0.8.7-4.2,3.7Z" transform="translate(-2564.3 -1189.2)"/><path class="cls-2" d="M2749.3,1308.5c-0.7,0-.8,2.2,0,2.5s1.2-1.2,1.9-2.2v-8.7h-0.1c-0.9-.9-0.8-0.9.1-0.2v-54.2l-2,1.8c-1.2,1-3.5,5.3-4.2,6.5a2.7,2.7,0,0,1-2.2,1.2,2.2,2.2,0,0,0-.8,1.6c0,0.5-3.7,2.4-4.2,4.1s0.5,5.7.5,7,1.4,4.2,2.4,4.2,0.6,2.4.2,3.1,0.7,1.4.6,1.9-2.6,1.4-3.4,1.6a5.7,5.7,0,0,0-2.3,2.8c-0.1.6-2.6,1-3.5,1.8s0.6-1.4.7-1.8a3.1,3.1,0,0,0-.6-2.8c-0.3-.3-0.6-4.9-1.2-5.9a25.5,25.5,0,0,0-2.6-3c-0.5-.3.2-1.5,0.6-2s-2.2-.8-2.7-0.5-1,4.9-1.2,6.1a3.9,3.9,0,0,0,1.6,3.2c0.5,0.1.2,2.3-.6,2.4s-1.6,3.3-1.1,4.1-0.6,2.2-1,2.5,3.2,0.1,4.9.1a4.4,4.4,0,0,1,2.8.8c-0.1.1-3.2,0.6-3.7,1.2s-2.6,2-3,2.6,0.7,1.7,1.5,1.7,1.8,3,2.5,3.5a2.5,2.5,0,0,1,.1,2.6c-0.2.5-4.4-.2-5.9,0.1s-3.5,3.6-3.6,4.9a31.8,31.8,0,0,0,.5,5.8c0.1,0.9,3.4,1.6,4.1,2s3.7,0,4.4.3,2.7-3.2,3.2-4.8,3.7-4.5,4.4-5.7,4.2-.9,5.1-1.5,0.5,2.7.8,4.5,3.9,1.6,3.3-.1,0.3-2.4.5-1.8,3.4,1.9,4.1,2.8S2750,1308.5,2749.3,1308.5Z" transform="translate(-2564.3 -1189.2)"/><path class="cls-2" d="M2751.3,1319.3l-1.7-.8c-2-.8-3.6-3.9-4-4.3s0.3-1.4.1-2-4.8-.7-6.1-0.2-8.3,1.2-9.9,1.9-4.1,0-4.9-.1-2.6,2.2-3.5,2.5-2,3.6-2.6,7.2l-1.2,2.4-0.8,1.6c-2.3,1.7-4.8,7.5-5.6,8.7s-1.4,9.5-1.4,12.4,2.4,8.7,3.2,10.5,4.9,5.2,6.4,6.1,6,1,7.5,1a4.4,4.4,0,0,0,3.7-3.2l2.2,0.2h1c0,1.2,3.3,2.2,4.1,2.6a6.2,6.2,0,0,0,3.5-.1c0.6-.1,1.4,5.6.9,7.3s1.1,7.5,1.6,9.3,2.5,6.6,2.6,8.3-1.1,7.5-1.4,9.5,2.5,7.6,3.2,9.5a35.2,35.2,0,0,1,1.2,7,21.1,21.1,0,0,0,1.6,4.1V1319.1h0Z" transform="translate(-2564.3 -1189.2)"/><path class="cls-2" d="M2670.5,1458h2.2C2672.9,1455.6,2670.4,1456,2670.5,1458Z" transform="translate(-2564.3 -1189.2)"/><path class="cls-2" d="M2714.1,1241.8c1.1,0.5,3.2-1,2.4-1.6s-0.3-.6,0-0.3,0.8-1.9.5-2.4,3.2-3.1,2.6-5.6,1-5.1,1.9-5.1,0.7-2.8-.6-3.1,0-.5.5-0.9a7.2,7.2,0,0,0,.7-3.4c-0.2-.5,1.8-1,2.2-1.6a8.9,8.9,0,0,1,3.5-1.8c0.9-.1,1.2-2.4.5-2.3a7.3,7.3,0,0,1-3.6-.8c-0.5-.5-3.9-0.8-4.9-0.5s-0.3-2.5,1-2.7,0.2-2.3-1.2-2.3-5.2-.6-6-0.3a14.7,14.7,0,0,1-3.2-.7c-0.6-.1-5.1,1.4-7.2,1.2a47.9,47.9,0,0,0-8.4.5c-1.1.2-1.9,2.5-1.7,3.3s-5,.8-6.6.8-10.3,1.8-12.6,3.1-4,4.4-3.3,4.4-1.2,1.8-2.5,2.3-4.1.6-4.8,1.2,0.7,1.1.9,1.6,1-.5,1.8,0,3.3,0.6,4,.9-2.2.8-3.4,0.9-1,2.6,0,3.1,3.9,0.7,4.1.2,3.3,0.5,4.7.7,2.4,3.5,2.8,4.3,0.5,3.3.5,4.1,2.4,2,2.8,1.6,0.3,1.1-.7,1-0.3,2.7.9,3.2,0.3,2.2-.3,2.7-0.3,2.2-1,2.8,2.6,6.4,2.5,9.3,1.8,5.3,2.5,5.3,3.1,0.6,3.4,1.2,1.5-.5,1.9-0.9a29.2,29.2,0,0,0,2.2-3.2c0.8-1.2,2.4-7.2,2.6-7.8s3-.2,3.6-0.6l3-2.2c0.5-.5,4.4-2,5.6-2.8s2.8-4.1,3.7-4.9-0.5-.5-1.5-1.1a1.1,1.1,0,0,1-.4-1.5l0.2-.3C2709.8,1240.6,2713.1,1241.4,2714.1,1241.8Z" transform="translate(-2564.3 -1189.2)"/><path class="cls-2" d="M2748.9,1215.6c-1.1-.3-3.4.9-3.1,1.6s-1.8-.9-3.3-0.1-1.9,3.4-1.2,3.7,1.1,2.4,1.1,2.8,2.8,0.1,3.6-.5,0.6,2-.1,2.8,0.2,2.2,1,2.3,1.8,1.9,2.7,1.9a2.7,2.7,0,0,0,1.5-1.7v-9.8h0C2750.6,1218.8,2750,1215.9,2748.9,1215.6Z" transform="translate(-2564.3 -1189.2)"/><path class="cls-2" d="M2721.6,1281.5a1.8,1.8,0,0,0,1.5-1.6c0-.7-1.2-4-1.7-4s-1.4,2.4-2,2.2-0.9,1.9-.8,2.7S2720.6,1281.7,2721.6,1281.5Z" transform="translate(-2564.3 -1189.2)"/><path class="cls-2" d="M2718.4,1257.1a2.3,2.3,0,0,0,2.4,1.2c1-.1,3.1-1.2,3.9-1.4s1.5-3.7,1-4.5-3.9-.7-4.8-0.7a12,12,0,0,1-4-1.5c-0.6-.6-0.8,2.2-1.6,2.5s0.3,0.8.7,0.6,0,1.4-.5,1.9S2718.2,1256.4,2718.4,1257.1Z" transform="translate(-2564.3 -1189.2)"/><path class="cls-2" d="M2640.5,1257.2c-0.6.5,0,3.1,0.9,3.1s2.7-3.9,4-3.1,2.2,1,1.9.7-3.9-1.9-4.3-2.3S2641.1,1256.7,2640.5,1257.2Z" transform="translate(-2564.3 -1189.2)"/><path class="cls-2" d="M2653.8,1344c0,0.5,2.3.3,2.6-.3s0.1-1.2-.5-1.2A3.6,3.6,0,0,0,2653.8,1344Z" transform="translate(-2564.3 -1189.2)"/><path class="cls-2" d="M2643.7,1340.2c1-.2.6,1.5,0.8,2.2s2.8,1.1,3.4,1.6,1.8-.8,2.8-0.7-0.3-3.6-2-3.5-3.1-1.6-3.5-1.8a18.9,18.9,0,0,1-3-1.8c-0.6-.5-5-0.8-6.5-0.8a4.7,4.7,0,0,0-3.4,2c-0.2.5,2.4,0.9,3.1,0.5s4.2,0.5,5,1.2A4.2,4.2,0,0,0,2643.7,1340.2Z" transform="translate(-2564.3 -1189.2)"/><path class="cls-2" d="M2638.9,1344c0,0.5,2.3.1,2.8,0.1s0.6-.5,0-0.8S2638.9,1343.5,2638.9,1344Z" transform="translate(-2564.3 -1189.2)"/><path class="cls-2" d="M2640.5,1332.2c-0.6-.2-1,0.7-1,1.1a0.8,0.8,0,0,0,.7.8C2640.6,1334.1,2641.2,1332.4,2640.5,1332.2Z" transform="translate(-2564.3 -1189.2)"/><path class="cls-2" d="M2645.4,1332.5a1.9,1.9,0,0,0-1.5-.8c-0.3,0-.5.7-0.5,1.7S2645.5,1332.9,2645.4,1332.5Z" transform="translate(-2564.3 -1189.2)"/><path class="cls-2" d="M2648.8,1337.8c0.9-.5,1-1.5.5-1.5s-1.6-1.6-2.2-1.8-1,1-1,1.5a0.7,0.7,0,0,0,.6.8h0.1C2647.2,1336.7,2647.9,1338.3,2648.8,1337.8Z" transform="translate(-2564.3 -1189.2)"/><path class="cls-5" d="M2654.5,1228.2c-0.1-.1-0.8.3-0.5,0.6A0.4,0.4,0,0,0,2654.5,1228.2Z" transform="translate(-2564.3 -1189.2)"/><path class="cls-5" d="M2672,1280.4c-0.1-.1-0.8.3-0.6,0.6S2672.3,1280.7,2672,1280.4Z" transform="translate(-2564.3 -1189.2)"/><path class="cls-6" d="M2671.3,1235.1h-87.8a19.2,19.2,0,0,0-19.2,19.2v210.5a19.2,19.2,0,0,0,19.2,19.2h87.8a19.2,19.2,0,0,0,19.2-19.2V1254.5a19.1,19.1,0,0,0-18.9-19.3h-0.3Z" transform="translate(-2564.3 -1189.2)"/><path class="cls-7" d="M2610.8,1250.1h33.2a1.7,1.7,0,0,1,1.7,1.7,1.6,1.6,0,0,1-1.5,1.7h-33.4A1.7,1.7,0,1,1,2610.8,1250.1Z" transform="translate(-2564.3 -1189.2)"/><path class="cls-7" d="M2627.3,1469.9a11.1,11.1,0,1,1,11.1-11.1A11.2,11.2,0,0,1,2627.3,1469.9Z" transform="translate(-2564.3 -1189.2)"/><rect class="cls-7" x="8.2" y="83.8" width="109.6" height="162.32"/><path class="cls-3" d="M2627.3,1451.1a7.8,7.8,0,0,0-7.7,7.7A7.7,7.7,0,1,0,2627.3,1451.1Z" transform="translate(-2564.3 -1189.2)"/><rect class="cls-8" x="14.5" y="121.3" width="97" height="49.88"/><rect class="cls-9" x="41.1" y="99.9" width="70.1" height="6.93"/><path class="cls-9" d="M2597,1292.6a9.1,9.1,0,1,1-9.1-9.1A9.1,9.1,0,0,1,2597,1292.6Z" transform="translate(-2564.3 -1189.2)"/><rect class="cls-9" x="14.5" y="203.2" width="97" height="2.85"/><rect class="cls-9" x="14.5" y="213.1" width="97" height="2.85"/><rect class="cls-9" x="14.5" y="222.9" width="97" height="2.85"/><rect class="cls-9" x="14.5" y="232.6" width="70.4" height="2.85"/><rect class="cls-9" x="14.5" y="184.3" width="64.5" height="6.93"/><path class="cls-7" d="M2605.8,1339.6V1327h2.3l1.9,5,1.4,3.6h0c-0.1-1.4-.2-3.5-0.2-5.8V1327h2.2v12.6H2611l-1.9-4.8a36.4,36.4,0,0,1-1.2-3.7h0c0,1.2.1,3.2,0.1,5.8v2.8h-2.2Z" transform="translate(-2564.3 -1189.2)"/><path class="cls-7" d="M2620.8,1334.1h-2.8v3.4h3.3v2.2h-5.7V1327h5.5v2.2h-3.1v3h2.8v2h0Z" transform="translate(-2564.3 -1189.2)"/><path class="cls-7" d="M2624.2,1329.3h-2.3V1327h6.9v2.3h-2.3v10.3h-2.5v-10.3h0.1Z" transform="translate(-2564.3 -1189.2)"/><path class="cls-7" d="M2631.9,1339.6l-2.2-12.6h2.5l0.6,5c0.1,1.5.2,2.8,0.5,4.4h0c0.1-1.6.5-3,.7-4.4l0.9-5h1.9l0.8,5c0.2,1.5.5,2.8,0.6,4.4h0l0.5-4.4,0.6-5h2.4l-2.3,12.6h-2.2l-0.8-4.1c-0.2-1.1-.3-2.6-0.6-4.1h0c-0.2,1.5-.5,3-0.7,4.2l-0.8,4.1h-2.4Z" transform="translate(-2564.3 -1189.2)"/><path class="cls-7" d="M2650.7,1333.2c0,4.8-1.7,6.7-4.1,6.7s-4-3.1-4-6.5,1.4-6.5,4.2-6.5S2650.7,1330.2,2650.7,1333.2Zm-5.6.2c0,2.8.6,4.3,1.6,4.3s1.5-1.8,1.5-4.4-0.3-4.2-1.5-4.2S2645.2,1330.7,2645.2,1333.4Z" transform="translate(-2564.3 -1189.2)"/><path class="cls-7" d="M2652.2,1327.3l2.7-.2a4.9,4.9,0,0,1,3.4.9,3.2,3.2,0,0,1,1,2.6,3.4,3.4,0,0,1-1.9,3.2h0c0.9,0.3,1.2,1.1,1.6,2.5a20.3,20.3,0,0,0,.8,3.4h-2.6a17.4,17.4,0,0,1-.6-3.1c-0.2-1.6-.6-2-1.5-2h-0.3v5h-2.5v-12.4h-0.1Zm2.5,5.5h0.5a1.7,1.7,0,0,0,1.7-1.7v-0.2a1.6,1.6,0,0,0-1.3-1.8h-0.8v3.7Z" transform="translate(-2564.3 -1189.2)"/><path class="cls-7" d="M2661.1,1327h2.5v5.7h0l0.6-1.6,1.7-4.1h2.7l-2.8,5.5,2.8,7.2h-2.7l-1.8-5.2-0.6,1v4.2H2661V1327h0.1Z" transform="translate(-2564.3 -1189.2)"/><g id="Page-1"><g id="xamagon"><path id="Logo" class="cls-7" d="M2588.8,1325.2a1.5,1.5,0,0,0-1.5.6l-4.5,7.7a1.6,1.6,0,0,0,0,1.6l4.5,7.7a1.6,1.6,0,0,0,1.5.7h9.1a1.6,1.6,0,0,0,1.5-.7l4.5-7.7a1.6,1.6,0,0,0,0-1.6l-4.5-7.5a1.5,1.5,0,0,0-1.5-.6h-9.1v-0.2Zm0.1,3.7v-0.3h1.6l0.2,0.5,2.6,4.9h0l2.6-5,0.2-.3h1.6a0.6,0.6,0,0,1,.2.6l-2.6,4.8,2.6,4c0.1,0.1,0-.3-0.2-0.3h-1.6a2.9,2.9,0,0,1-.2.6l-2.6-4.3h0l-2.6,4.1a1.9,1.9,0,0,0-.2-0.6h-1.6a1.6,1.6,0,0,0-.2.3l2.6-4.3-2.6-4.5a0.2,0.2,0,0,1,.1-0.3h0.1v0.5Z" transform="translate(-2564.3 -1189.2)"/></g></g></g></svg>