<svg id="Pagina_interna_Escritorio" data-name="Pagina interna Escritorio" xmlns="http://www.w3.org/2000/svg" xmlns:xlink="http://www.w3.org/1999/xlink" viewBox="0 0 362.7 540.2"><defs><style>.cls-1{fill:url(#Degradado_sin_nombre_3);}.cls-192,.cls-2{opacity:0.8;}.cls-203,.cls-3{fill:#fff;}.cls-4{fill:#fefefe;opacity:1;}.cls-10,.cls-100,.cls-101,.cls-102,.cls-103,.cls-104,.cls-105,.cls-106,.cls-107,.cls-108,.cls-109,.cls-11,.cls-110,.cls-111,.cls-112,.cls-113,.cls-114,.cls-115,.cls-116,.cls-117,.cls-118,.cls-119,.cls-12,.cls-120,.cls-121,.cls-122,.cls-123,.cls-124,.cls-125,.cls-126,.cls-127,.cls-128,.cls-129,.cls-13,.cls-130,.cls-131,.cls-132,.cls-133,.cls-134,.cls-135,.cls-136,.cls-137,.cls-138,.cls-139,.cls-14,.cls-140,.cls-141,.cls-142,.cls-143,.cls-144,.cls-145,.cls-146,.cls-147,.cls-148,.cls-149,.cls-15,.cls-150,.cls-151,.cls-152,.cls-153,.cls-154,.cls-155,.cls-156,.cls-157,.cls-158,.cls-159,.cls-16,.cls-160,.cls-161,.cls-162,.cls-163,.cls-164,.cls-165,.cls-166,.cls-167,.cls-168,.cls-169,.cls-17,.cls-170,.cls-171,.cls-172,.cls-173,.cls-174,.cls-175,.cls-176,.cls-177,.cls-178,.cls-179,.cls-18,.cls-180,.cls-181,.cls-182,.cls-183,.cls-184,.cls-185,.cls-186,.cls-187,.cls-188,.cls-189,.cls-19,.cls-190,.cls-191,.cls-192,.cls-195,.cls-197,.cls-199,.cls-20,.cls-201,.cls-203,.cls-207,.cls-21,.cls-22,.cls-23,.cls-24,.cls-25,.cls-26,.cls-27,.cls-28,.cls-29,.cls-30,.cls-31,.cls-32,.cls-33,.cls-34,.cls-35,.cls-36,.cls-37,.cls-38,.cls-39,.cls-4,.cls-40,.cls-41,.cls-42,.cls-43,.cls-44,.cls-45,.cls-46,.cls-47,.cls-48,.cls-49,.cls-5,.cls-50,.cls-51,.cls-52,.cls-53,.cls-54,.cls-55,.cls-56,.cls-57,.cls-58,.cls-59,.cls-6,.cls-60,.cls-61,.cls-62,.cls-63,.cls-64,.cls-65,.cls-66,.cls-67,.cls-68,.cls-69,.cls-7,.cls-70,.cls-71,.cls-72,.cls-73,.cls-74,.cls-75,.cls-76,.cls-77,.cls-78,.cls-79,.cls-8,.cls-80,.cls-81,.cls-82,.cls-83,.cls-84,.cls-85,.cls-86,.cls-87,.cls-88,.cls-89,.cls-9,.cls-90,.cls-91,.cls-92,.cls-93,.cls-94,.cls-95,.cls-96,.cls-97,.cls-98,.cls-99{isolation:isolate;}.cls-5{fill:#fdfdfd;opacity:1;}.cls-6{fill:#fcfcfc;opacity:1;}.cls-7{fill:#fbfbfb;opacity:1;}.cls-8{fill:#fafafa;opacity:0.99;}.cls-9{fill:#f9f9f9;opacity:0.99;}.cls-10{fill:#f8f8f8;opacity:0.99;}.cls-11{fill:#f7f7f7;opacity:0.99;}.cls-12{fill:#f6f6f6;opacity:0.99;}.cls-13{fill:#f5f5f5;opacity:0.99;}.cls-14{fill:#f4f4f4;opacity:0.99;}.cls-15{fill:#f3f3f3;opacity:0.99;}.cls-16{fill:#f2f2f2;opacity:0.99;}.cls-17{fill:#f1f1f1;opacity:0.99;}.cls-18{fill:#f0f0f0;opacity:0.98;}.cls-19{fill:#efefef;opacity:0.98;}.cls-20{fill:#eee;opacity:0.98;}.cls-21{fill:#ededed;opacity:0.98;}.cls-22{fill:#ececec;opacity:0.98;}.cls-23{fill:#ebebeb;opacity:0.98;}.cls-24{fill:#eaeaea;opacity:0.98;}.cls-25{fill:#e9e9e9;opacity:0.98;}.cls-26{fill:#e8e8e8;opacity:0.98;}.cls-27{fill:#e7e7e7;opacity:0.97;}.cls-28{fill:#e6e6e6;opacity:0.97;}.cls-29{fill:#e5e5e5;opacity:0.97;}.cls-30{fill:#e4e4e4;opacity:0.97;}.cls-31{fill:#e3e3e3;opacity:0.97;}.cls-32{fill:#e2e2e2;opacity:0.97;}.cls-33{fill:#e1e1e1;opacity:0.97;}.cls-34{fill:#e0e0e0;opacity:0.97;}.cls-35{fill:#dfdfdf;opacity:0.97;}.cls-36{fill:#dedede;opacity:0.97;}.cls-37{fill:#ddd;opacity:0.96;}.cls-38{fill:#dcdcdc;opacity:0.96;}.cls-39{fill:#dbdbdb;opacity:0.96;}.cls-40{fill:#dadada;opacity:0.96;}.cls-41{fill:#d9d9d9;opacity:0.96;}.cls-42{fill:#d8d8d8;opacity:0.96;}.cls-43{fill:#d7d7d7;opacity:0.96;}.cls-44{fill:#d6d6d6;opacity:0.96;}.cls-45{fill:#d5d5d5;opacity:0.96;}.cls-46{fill:#d4d4d4;opacity:0.95;}.cls-47{fill:#d3d3d3;opacity:0.95;}.cls-48{fill:#d2d2d2;opacity:0.95;}.cls-49{fill:#d1d1d1;opacity:0.95;}.cls-50{fill:#d0d0d0;opacity:0.95;}.cls-51{fill:#cfcfcf;opacity:0.95;}.cls-52{fill:#cecece;opacity:0.95;}.cls-53{fill:#cdcdcd;opacity:0.95;}.cls-54{fill:#ccc;opacity:0.95;}.cls-55{fill:#cbcbcb;opacity:0.94;}.cls-56{fill:#cacaca;opacity:0.94;}.cls-57{fill:#c9c9c9;opacity:0.94;}.cls-58{fill:#c8c8c8;opacity:0.94;}.cls-59{fill:#c7c7c7;opacity:0.94;}.cls-60{fill:#c6c6c6;opacity:0.94;}.cls-61{fill:#c5c5c5;opacity:0.94;}.cls-206,.cls-62{fill:#c4c4c4;}.cls-62{opacity:0.94;}.cls-63{fill:#c3c3c3;opacity:0.94;}.cls-64{fill:#c2c2c2;opacity:0.94;}.cls-65{fill:#c1c1c1;opacity:0.93;}.cls-66{fill:silver;opacity:0.93;}.cls-67{fill:#bfbfbf;opacity:0.93;}.cls-68{fill:#bebebe;opacity:0.93;}.cls-69{fill:#bdbdbd;opacity:0.93;}.cls-70{fill:#bcbcbc;opacity:0.93;}.cls-71{fill:#bbb;opacity:0.93;}.cls-72{fill:#bababa;opacity:0.93;}.cls-73{fill:#b9b9b9;opacity:0.93;}.cls-74{fill:#b8b8b8;opacity:0.92;}.cls-75{fill:#b7b7b7;opacity:0.92;}.cls-76{fill:#b6b6b6;opacity:0.92;}.cls-77{fill:#b5b5b5;opacity:0.92;}.cls-78{fill:#b4b4b4;opacity:0.92;}.cls-79{fill:#b3b3b3;opacity:0.92;}.cls-80{fill:#b2b2b2;opacity:0.92;}.cls-81{fill:#b1b1b1;opacity:0.92;}.cls-82{fill:#b0b0b0;opacity:0.92;}.cls-83{fill:#afafaf;opacity:0.92;}.cls-84{fill:#aeaeae;opacity:0.91;}.cls-85{fill:#adadad;opacity:0.91;}.cls-86{fill:#acacac;opacity:0.91;}.cls-87{fill:#ababab;opacity:0.91;}.cls-88{fill:#aaa;opacity:0.91;}.cls-89{fill:#a9a9a9;opacity:0.91;}.cls-90{fill:#a8a8a8;opacity:0.91;}.cls-91{fill:#a7a7a7;opacity:0.91;}.cls-92{fill:#a6a6a6;opacity:0.91;}.cls-93{fill:#a5a5a5;opacity:0.9;}.cls-94{fill:#a4a4a4;opacity:0.9;}.cls-95{fill:#a3a3a3;opacity:0.9;}.cls-96{fill:#a2a2a2;opacity:0.9;}.cls-97{fill:#a1a1a1;opacity:0.9;}.cls-98{fill:#a0a0a0;opacity:0.9;}.cls-99{fill:#9f9f9f;opacity:0.9;}.cls-100{fill:#9e9e9e;opacity:0.9;}.cls-101{fill:#9d9d9d;opacity:0.9;}.cls-102{fill:#9c9c9c;opacity:0.9;}.cls-103{fill:#9b9b9b;opacity:0.89;}.cls-104{fill:#9a9a9a;opacity:0.89;}.cls-105{fill:#999;opacity:0.89;}.cls-106{fill:#989898;opacity:0.89;}.cls-107{fill:#979797;opacity:0.89;}.cls-108{fill:#969696;opacity:0.89;}.cls-109{fill:#959595;opacity:0.89;}.cls-110{fill:#949494;opacity:0.89;}.cls-111{fill:#939393;opacity:0.89;}.cls-112{fill:#929292;opacity:0.88;}.cls-113{fill:#919191;opacity:0.88;}.cls-114{fill:#909090;opacity:0.88;}.cls-115{fill:#8f8f8f;opacity:0.88;}.cls-116{fill:#8e8e8e;opacity:0.88;}.cls-117{fill:#8d8d8d;opacity:0.88;}.cls-118{fill:#8c8c8c;opacity:0.88;}.cls-119{fill:#8b8b8b;opacity:0.88;}.cls-120{fill:#8a8a8a;opacity:0.88;}.cls-121{fill:#898989;opacity:0.88;}.cls-122{fill:#888;opacity:0.87;}.cls-123{fill:#878787;opacity:0.87;}.cls-124{fill:#868686;opacity:0.87;}.cls-125{fill:#858585;opacity:0.87;}.cls-126{fill:#848484;opacity:0.87;}.cls-127{fill:#838383;opacity:0.87;}.cls-128{fill:#828282;opacity:0.87;}.cls-129{fill:#818181;opacity:0.87;}.cls-130{fill:gray;opacity:0.87;}.cls-131{fill:#7f7f7f;opacity:0.86;}.cls-132{fill:#7e7e7e;opacity:0.86;}.cls-133{fill:#7d7d7d;opacity:0.86;}.cls-134{fill:#7c7c7c;opacity:0.86;}.cls-135{fill:#7b7b7b;opacity:0.86;}.cls-136{fill:#7a7a7a;opacity:0.86;}.cls-137{fill:#797979;opacity:0.86;}.cls-138{fill:#787878;opacity:0.86;}.cls-139{fill:#777;opacity:0.86;}.cls-140{fill:#767676;opacity:0.86;}.cls-141{fill:#757575;opacity:0.85;}.cls-142{fill:#747474;opacity:0.85;}.cls-143{fill:#737373;opacity:0.85;}.cls-144{fill:#727272;opacity:0.85;}.cls-145{fill:#717171;opacity:0.85;}.cls-146,.cls-211{fill:#707070;}.cls-146{opacity:0.85;}.cls-147{fill:#6f6f6f;opacity:0.85;}.cls-148{fill:#6e6e6e;opacity:0.85;}.cls-149{fill:#6d6d6d;opacity:0.85;}.cls-150{fill:#6c6c6c;opacity:0.84;}.cls-151{fill:#6b6b6b;opacity:0.84;}.cls-152{fill:#6a6a6a;opacity:0.84;}.cls-153{fill:#696969;opacity:0.84;}.cls-154{fill:#686868;opacity:0.84;}.cls-155{fill:#676767;opacity:0.84;}.cls-156{fill:#666;opacity:0.84;}.cls-157{fill:#656565;opacity:0.84;}.cls-158{fill:#646464;opacity:0.84;}.cls-159{fill:#636363;opacity:0.83;}.cls-160{fill:#626262;opacity:0.83;}.cls-161{fill:#616161;opacity:0.83;}.cls-162{fill:#606060;opacity:0.83;}.cls-163{fill:#5f5f5f;opacity:0.83;}.cls-164{fill:#5e5e5e;opacity:0.83;}.cls-165{fill:#5d5d5d;opacity:0.83;}.cls-166{fill:#5c5c5c;opacity:0.83;}.cls-167{fill:#5b5b5b;opacity:0.83;}.cls-168{fill:#5a5a5a;opacity:0.83;}.cls-169{fill:#595959;opacity:0.82;}.cls-170{fill:#585858;opacity:0.82;}.cls-171{fill:#575757;opacity:0.82;}.cls-172{fill:#565656;opacity:0.82;}.cls-173{fill:#555;opacity:0.82;}.cls-174{fill:#545454;opacity:0.82;}.cls-175{fill:#535353;opacity:0.82;}.cls-176{fill:#525252;opacity:0.82;}.cls-177{fill:#515151;opacity:0.82;}.cls-178{fill:#505050;opacity:0.81;}.cls-179{fill:#4f4f4f;opacity:0.81;}.cls-180{fill:#4e4e4e;opacity:0.81;}.cls-181{fill:#4d4d4d;opacity:0.81;}.cls-182{fill:#4c4c4c;opacity:0.81;}.cls-183{fill:#4b4b4b;opacity:0.81;}.cls-184{fill:#4a4a4a;opacity:0.81;}.cls-185{fill:#494949;opacity:0.81;}.cls-186{fill:#484848;opacity:0.81;}.cls-187{fill:#474747;opacity:0.81;}.cls-188{fill:#464646;opacity:0.8;}.cls-189{fill:#454545;opacity:0.8;}.cls-190{fill:#444;opacity:0.8;}.cls-191{fill:#434343;opacity:0.8;}.cls-192,.cls-193{fill:#424242;}.cls-194{fill:url(#Degradado_sin_nombre_3-2);}.cls-195{opacity:0.12;}.cls-196{fill:#5f2900;}.cls-197,.cls-203{opacity:0.2;}.cls-198{fill:#e88e47;}.cls-199{opacity:0.35;}.cls-200{fill:url(#Degradado_sin_nombre_3-3);}.cls-201{opacity:0.1;}.cls-202{fill:#361700;}.cls-204{fill:#450800;}.cls-205{fill:#b20a00;}.cls-207{opacity:0.36;}.cls-208{fill:#873a00;}.cls-209{fill:#ffa81f;}.cls-210{fill:#f69e63;}.cls-212{fill:#9ad5f0;}.cls-213{fill:url(#Degradado_sin_nombre_4);}</style><linearGradient id="Degradado_sin_nombre_3" x1="3028.77" y1="3951.58" x2="3074.45" y2="3951.58" gradientTransform="translate(-2930.8 -3724.8)" gradientUnits="userSpaceOnUse"><stop offset="0.08" stop-color="#bdbdbd"/><stop offset="0.13" stop-color="#c2c2c2"/><stop offset="0.37" stop-color="#d7d7d7"/><stop offset="0.53" stop-color="#dfdfdf"/><stop offset="1" stop-color="#cdcdcd"/></linearGradient><linearGradient id="Degradado_sin_nombre_3-2" x1="3059.87" y1="3988.43" x2="3198.36" y2="3988.43" gradientTransform="translate(0 -220)" xlink:href="#Degradado_sin_nombre_3"/><linearGradient id="Degradado_sin_nombre_3-3" x1="5871.78" y1="4278.12" x2="5944.06" y2="4278.12" gradientTransform="matrix(-0.98, -0.17, -0.17, 0.98, 9785.99, 604.17)" xlink:href="#Degradado_sin_nombre_3"/><linearGradient id="Degradado_sin_nombre_4" x1="3004.17" y1="3792.14" x2="3029.68" y2="3842.66" gradientTransform="matrix(1, -0.04, 0.04, 1, -171.8, -46.55)" gradientUnits="userSpaceOnUse"><stop offset="0" stop-color="#fff"/><stop offset="1"/></linearGradient></defs><title>nosotros</title><polygon class="cls-1" points="137 195.7 98 232.3 111.1 257.9 143.8 210.4 137 195.7"/><g class="cls-2"><ellipse class="cls-3" cx="220.3" cy="525.4" rx="142.3" ry="14.7"/><ellipse class="cls-4" cx="220.3" cy="525.4" rx="142" ry="14.7"/><ellipse class="cls-5" cx="220.3" cy="525.4" rx="141.6" ry="14.7"/><ellipse class="cls-6" cx="220.3" cy="525.4" rx="141.3" ry="14.6"/><ellipse class="cls-7" cx="220.3" cy="525.4" rx="141.1" ry="14.6"/><ellipse class="cls-8" cx="220.3" cy="525.4" rx="140.8" ry="14.6"/><ellipse class="cls-9" cx="220.3" cy="525.4" rx="140.5" ry="14.6"/><ellipse class="cls-10" cx="220.3" cy="525.4" rx="140.1" ry="14.6"/><ellipse class="cls-11" cx="220.3" cy="525.4" rx="139.8" ry="14.4"/><ellipse class="cls-12" cx="220.3" cy="525.4" rx="139.4" ry="14.4"/><ellipse class="cls-13" cx="220.3" cy="525.4" rx="139.1" ry="14.4"/><ellipse class="cls-14" cx="220.3" cy="525.4" rx="138.8" ry="14.4"/><ellipse class="cls-15" cx="220.3" cy="525.4" rx="138.4" ry="14.4"/><ellipse class="cls-16" cx="220.3" cy="525.4" rx="138.1" ry="14.4"/><ellipse class="cls-17" cx="220.3" cy="525.4" rx="137.8" ry="14.2"/><ellipse class="cls-18" cx="220.3" cy="525.4" rx="137.6" ry="14.2"/><ellipse class="cls-19" cx="220.3" cy="525.4" rx="137.2" ry="14.2"/><ellipse class="cls-20" cx="220.3" cy="525.4" rx="136.9" ry="14.2"/><ellipse class="cls-21" cx="220.3" cy="525.4" rx="136.6" ry="14.2"/><ellipse class="cls-22" cx="220.3" cy="525.4" rx="136.2" ry="14.1"/><ellipse class="cls-23" cx="220.3" cy="525.4" rx="135.9" ry="14.1"/><ellipse class="cls-24" cx="220.3" cy="525.4" rx="135.5" ry="14.1"/><ellipse class="cls-25" cx="220.3" cy="525.4" rx="135.2" ry="14.1"/><ellipse class="cls-26" cx="220.3" cy="525.4" rx="134.9" ry="14.1"/><ellipse class="cls-27" cx="220.3" cy="525.4" rx="134.5" ry="13.9"/><ellipse class="cls-28" cx="220.3" cy="525.4" rx="134.2" ry="13.9"/><ellipse class="cls-29" cx="220.3" cy="525.4" rx="134" ry="13.9"/><ellipse class="cls-30" cx="220.3" cy="525.4" rx="133.7" ry="13.9"/><ellipse class="cls-31" cx="220.3" cy="525.4" rx="133.3" ry="13.7"/><ellipse class="cls-32" cx="220.3" cy="525.4" rx="133" ry="13.7"/><ellipse class="cls-33" cx="220.3" cy="525.4" rx="132.7" ry="13.7"/><ellipse class="cls-34" cx="220.3" cy="525.4" rx="132.3" ry="13.7"/><ellipse class="cls-35" cx="220.3" cy="525.4" rx="132" ry="13.7"/><ellipse class="cls-36" cx="220.3" cy="525.4" rx="131.7" ry="13.6"/><ellipse class="cls-37" cx="220.3" cy="525.4" rx="131.3" ry="13.6"/><ellipse class="cls-38" cx="220.3" cy="525.4" rx="131" ry="13.6"/><ellipse class="cls-39" cx="220.3" cy="525.4" rx="130.6" ry="13.6"/><ellipse class="cls-40" cx="220.3" cy="525.4" rx="130.3" ry="13.6"/><ellipse class="cls-41" cx="220.3" cy="525.4" rx="130.1" ry="13.6"/><ellipse class="cls-42" cx="220.3" cy="525.4" rx="129.8" ry="13.4"/><ellipse class="cls-43" cx="220.3" cy="525.4" rx="129.5" ry="13.4"/><ellipse class="cls-44" cx="220.3" cy="525.4" rx="129.1" ry="13.4"/><ellipse class="cls-45" cx="220.3" cy="525.4" rx="128.8" ry="13.4"/><ellipse class="cls-46" cx="220.3" cy="525.4" rx="128.4" ry="13.4"/><ellipse class="cls-47" cx="220.3" cy="525.4" rx="128.1" ry="13.2"/><ellipse class="cls-48" cx="220.3" cy="525.4" rx="127.8" ry="13.2"/><ellipse class="cls-49" cx="220.3" cy="525.4" rx="127.4" ry="13.2"/><ellipse class="cls-50" cx="220.3" cy="525.4" rx="127.1" ry="13.2"/><ellipse class="cls-51" cx="220.3" cy="525.4" rx="126.7" ry="13.2"/><ellipse class="cls-52" cx="220.3" cy="525.4" rx="126.6" ry="13"/><ellipse class="cls-53" cx="220.3" cy="525.4" rx="126.2" ry="13"/><ellipse class="cls-54" cx="220.3" cy="525.4" rx="125.9" ry="13"/><ellipse class="cls-55" cx="220.3" cy="525.4" rx="125.6" ry="13"/><ellipse class="cls-56" cx="220.3" cy="525.4" rx="125.2" ry="13"/><ellipse class="cls-57" cx="220.3" cy="525.4" rx="124.9" ry="12.9"/><ellipse class="cls-58" cx="220.3" cy="525.4" rx="124.5" ry="12.9"/><ellipse class="cls-59" cx="220.3" cy="525.4" rx="124.2" ry="12.9"/><ellipse class="cls-60" cx="220.3" cy="525.4" rx="123.9" ry="12.9"/><path class="cls-61" d="M3274.6,4030.2c0,7.1-55.4,12.9-123.5,12.9s-123.5-5.8-123.5-12.9,55.4-12.9,123.5-12.9S3274.6,4023.1,3274.6,4030.2Z" transform="translate(-2930.8 -3504.8)"/><ellipse class="cls-62" cx="220.3" cy="525.4" rx="123.2" ry="12.7"/><ellipse class="cls-63" cx="220.3" cy="525.4" rx="123" ry="12.7"/><ellipse class="cls-64" cx="220.3" cy="525.4" rx="122.7" ry="12.7"/><ellipse class="cls-65" cx="220.3" cy="525.4" rx="122.3" ry="12.7"/><ellipse class="cls-66" cx="220.3" cy="525.4" rx="122" ry="12.7"/><ellipse class="cls-67" cx="220.3" cy="525.4" rx="121.7" ry="12.5"/><ellipse class="cls-68" cx="220.3" cy="525.4" rx="121.3" ry="12.5"/><ellipse class="cls-69" cx="220.3" cy="525.4" rx="121" ry="12.5"/><ellipse class="cls-70" cx="220.3" cy="525.4" rx="120.6" ry="12.5"/><ellipse class="cls-71" cx="220.3" cy="525.4" rx="120.3" ry="12.5"/><ellipse class="cls-72" cx="220.3" cy="525.4" rx="120" ry="12.4"/><ellipse class="cls-73" cx="220.3" cy="525.4" rx="119.6" ry="12.4"/><ellipse class="cls-74" cx="220.3" cy="525.4" rx="119.3" ry="12.4"/><ellipse class="cls-75" cx="220.3" cy="525.4" rx="119.1" ry="12.4"/><ellipse class="cls-76" cx="220.3" cy="525.4" rx="118.8" ry="12.4"/><ellipse class="cls-77" cx="220.3" cy="525.4" rx="118.4" ry="12.2"/><ellipse class="cls-78" cx="220.3" cy="525.4" rx="118.1" ry="12.2"/><ellipse class="cls-79" cx="220.3" cy="525.4" rx="117.8" ry="12.2"/><ellipse class="cls-80" cx="220.3" cy="525.4" rx="117.4" ry="12.2"/><ellipse class="cls-81" cx="220.3" cy="525.4" rx="117.1" ry="12.2"/><path class="cls-82" d="M3267.8,4030.2c0,6.8-52.4,12-116.7,12s-116.7-5.4-116.7-12,52.2-12,116.7-12S3267.8,4023.4,3267.8,4030.2Z" transform="translate(-2930.8 -3504.8)"/><ellipse class="cls-83" cx="220.3" cy="525.4" rx="116.4" ry="12"/><ellipse class="cls-84" cx="220.3" cy="525.4" rx="116.1" ry="12"/><ellipse class="cls-85" cx="220.3" cy="525.4" rx="115.7" ry="12"/><path class="cls-86" d="M3266.7,4030.2c0,6.6-51.7,12-115.6,12s-115.4-5.6-115.4-12,51.7-12,115.6-12S3266.7,4023.4,3266.7,4030.2Z" transform="translate(-2930.8 -3504.8)"/><path class="cls-87" d="M3266.3,4030.2c0,6.6-51.5,11.9-115.2,11.9s-115.2-5.3-115.2-11.9,51.5-11.9,115.2-11.9S3266.3,4023.6,3266.3,4030.2Z" transform="translate(-2930.8 -3504.8)"/><ellipse class="cls-88" cx="220.3" cy="525.4" rx="114.9" ry="11.9"/><ellipse class="cls-89" cx="220.3" cy="525.4" rx="114.5" ry="11.9"/><ellipse class="cls-90" cx="220.3" cy="525.4" rx="114.2" ry="11.9"/><ellipse class="cls-91" cx="220.3" cy="525.4" rx="113.9" ry="11.9"/><ellipse class="cls-92" cx="220.3" cy="525.4" rx="113.5" ry="11.7"/><ellipse class="cls-93" cx="220.3" cy="525.4" rx="113.2" ry="11.7"/><ellipse class="cls-94" cx="220.3" cy="525.4" rx="112.8" ry="11.7"/><ellipse class="cls-95" cx="220.3" cy="525.4" rx="112.5" ry="11.7"/><path class="cls-96" d="M3263.4,4030.2c0,6.4-50.3,11.7-112.2,11.7s-112.2-5.3-112.2-11.7,50.3-11.7,112.2-11.7S3263.4,4023.8,3263.4,4030.2Z" transform="translate(-2930.8 -3504.8)"/><path class="cls-97" d="M3263.1,4030.2c0,6.4-50.2,11.5-112,11.5s-112-5.3-112-11.5,50.2-11.7,112-11.7S3263.1,4023.8,3263.1,4030.2Z" transform="translate(-2930.8 -3504.8)"/><ellipse class="cls-98" cx="220.3" cy="525.4" rx="111.7" ry="11.5"/><ellipse class="cls-99" cx="220.3" cy="525.4" rx="111.3" ry="11.5"/><ellipse class="cls-100" cx="220.3" cy="525.4" rx="111" ry="11.5"/><ellipse class="cls-101" cx="220.3" cy="525.4" rx="110.6" ry="11.5"/><ellipse class="cls-102" cx="220.3" cy="525.4" rx="110.3" ry="11.5"/><ellipse class="cls-103" cx="220.3" cy="525.4" rx="110" ry="11.4"/><ellipse class="cls-104" cx="220.3" cy="525.4" rx="109.6" ry="11.4"/><ellipse class="cls-105" cx="220.3" cy="525.4" rx="109.3" ry="11.4"/><ellipse class="cls-106" cx="220.3" cy="525.4" rx="108.9" ry="11.4"/><path class="cls-107" d="M3259.9,4030.2c0,6.3-48.6,11.2-108.6,11.2s-108.6-5.1-108.6-11.2,48.6-11.2,108.6-11.2S3259.9,4023.9,3259.9,4030.2Z" transform="translate(-2930.8 -3504.8)"/><ellipse class="cls-108" cx="220.3" cy="525.4" rx="108.3" ry="11.2"/><ellipse class="cls-109" cx="220.3" cy="525.4" rx="108.1" ry="11.2"/><path class="cls-110" d="M3258.9,4030.2c0,6.1-48.3,11.2-107.8,11.2s-107.8-5.1-107.8-11.2,48.3-11.2,107.8-11.2S3258.9,4023.9,3258.9,4030.2Z" transform="translate(-2930.8 -3504.8)"/><path class="cls-111" d="M3258.5,4030.2c0,6.1-48.1,11.2-107.4,11.2s-107.4-4.9-107.4-11.2,48.1-11.2,107.4-11.2S3258.5,4023.9,3258.5,4030.2Z" transform="translate(-2930.8 -3504.8)"/><path class="cls-112" d="M3258.2,4030.2c0,6.1-48,11-107.1,11s-107.1-4.9-107.1-11,48-11,107.1-11S3258.2,4023.9,3258.2,4030.2Z" transform="translate(-2930.8 -3504.8)"/><ellipse class="cls-113" cx="220.3" cy="525.4" rx="106.7" ry="11"/><ellipse class="cls-114" cx="220.3" cy="525.4" rx="106.4" ry="11"/><ellipse class="cls-115" cx="220.3" cy="525.4" rx="106.1" ry="11"/><ellipse class="cls-116" cx="220.3" cy="525.4" rx="105.7" ry="11"/><path class="cls-117" d="M3256.5,4030.2c0,6.1-47.3,11-105.4,11s-105.4-4.9-105.4-11,47.3-11,105.4-11S3256.5,4024.1,3256.5,4030.2Z" transform="translate(-2930.8 -3504.8)"/><ellipse class="cls-118" cx="220.3" cy="525.4" rx="105.1" ry="10.8"/><ellipse class="cls-119" cx="220.3" cy="525.4" rx="104.7" ry="10.8"/><ellipse class="cls-120" cx="220.3" cy="525.4" rx="104.5" ry="10.8"/><path class="cls-121" d="M3255.3,4030.2c0,5.9-46.6,10.8-104.2,10.8s-104.2-4.9-104.2-10.8,46.6-10.8,104.2-10.8S3255.3,4024.1,3255.3,4030.2Z" transform="translate(-2930.8 -3504.8)"/><path class="cls-122" d="M3255,4030.2c0,5.9-46.4,10.8-103.9,10.8s-103.9-4.7-103.9-10.8,46.4-10.8,103.9-10.8S3255,4024.1,3255,4030.2Z" transform="translate(-2930.8 -3504.8)"/><path class="cls-123" d="M3254.6,4030.2c0,5.9-46.4,10.7-103.5,10.7s-103.5-4.7-103.5-10.7,46.3-10.7,103.5-10.7S3254.6,4024.3,3254.6,4030.2Z" transform="translate(-2930.8 -3504.8)"/><ellipse class="cls-124" cx="220.3" cy="525.4" rx="103.2" ry="10.7"/><ellipse class="cls-125" cx="220.3" cy="525.4" rx="102.8" ry="10.7"/><ellipse class="cls-126" cx="220.3" cy="525.4" rx="102.5" ry="10.7"/><ellipse class="cls-127" cx="220.3" cy="525.4" rx="102.2" ry="10.7"/><path class="cls-128" d="M3252.9,4030.2c0,5.8-45.6,10.5-101.8,10.5s-101.8-4.7-101.8-10.5,45.6-10.5,101.8-10.5S3252.9,4024.3,3252.9,4030.2Z" transform="translate(-2930.8 -3504.8)"/><ellipse class="cls-129" cx="220.3" cy="525.4" rx="101.5" ry="10.5"/><ellipse class="cls-130" cx="220.3" cy="525.4" rx="101.2" ry="10.5"/><path class="cls-131" d="M3252.1,4030.2c0,5.8-45.2,10.5-101,10.5s-101-4.7-101-10.5,45.2-10.5,101-10.5S3252.1,4024.3,3252.1,4030.2Z" transform="translate(-2930.8 -3504.8)"/><path class="cls-132" d="M3251.7,4030.2c0,5.8-45.1,10.3-100.6,10.3s-100.6-4.7-100.6-10.3,45.1-10.3,100.6-10.3S3251.7,4024.5,3251.7,4030.2Z" transform="translate(-2930.8 -3504.8)"/><path class="cls-133" d="M3251.4,4030.2c0,5.8-44.9,10.3-100.3,10.3s-100.3-4.6-100.3-10.3,44.9-10.3,100.3-10.3S3251.4,4024.5,3251.4,4030.2Z" transform="translate(-2930.8 -3504.8)"/><ellipse class="cls-134" cx="220.3" cy="525.4" rx="100" ry="10.3"/><path class="cls-135" d="M3250.7,4030.2c0,5.8-44.6,10.3-99.6,10.3s-99.6-4.6-99.6-10.3,44.6-10.3,99.6-10.3S3250.7,4024.5,3250.7,4030.2Z" transform="translate(-2930.8 -3504.8)"/><path class="cls-136" d="M3250.4,4030.2c0,5.8-44.4,10.3-99.3,10.3s-99.3-4.6-99.3-10.3,44.4-10.3,99.3-10.3S3250.4,4024.5,3250.4,4030.2Z" transform="translate(-2930.8 -3504.8)"/><path class="cls-137" d="M3250.1,4030.2c0,5.6-44.2,10.2-99,10.2s-99-4.6-99-10.2,44.4-10.2,99-10.2S3250.1,4024.5,3250.1,4030.2Z" transform="translate(-2930.8 -3504.8)"/><path class="cls-138" d="M3249.7,4030.2c0,5.6-44.2,10.2-98.6,10.2s-98.6-4.6-98.6-10.2,44.2-10.2,98.6-10.2S3249.7,4024.5,3249.7,4030.2Z" transform="translate(-2930.8 -3504.8)"/><ellipse class="cls-139" cx="220.3" cy="525.4" rx="98.3" ry="10.2"/><ellipse class="cls-140" cx="220.3" cy="525.4" rx="97.9" ry="10.2"/><ellipse class="cls-141" cx="220.3" cy="525.4" rx="97.6" ry="10.2"/><path class="cls-142" d="M3248.5,4030.2c0,5.6-43.5,10.2-97.3,10.2s-97.3-4.6-97.3-10.2,43.5-10.2,97.3-10.2S3248.5,4024.6,3248.5,4030.2Z" transform="translate(-2930.8 -3504.8)"/><path class="cls-143" d="M3248.2,4030.2c0,5.6-43.4,10-97.1,10s-97.1-4.6-97.1-10,43.4-10,97.1-10S3248.2,4024.6,3248.2,4030.2Z" transform="translate(-2930.8 -3504.8)"/><ellipse class="cls-144" cx="220.3" cy="525.4" rx="96.7" ry="10"/><path class="cls-145" d="M3247.5,4030.2c0,5.6-43.2,10-96.4,10s-96.4-4.4-96.4-10,43.2-10,96.4-10S3247.5,4024.6,3247.5,4030.2Z" transform="translate(-2930.8 -3504.8)"/><path class="cls-146" d="M3247.2,4030.2c0,5.6-43,10-96.1,10s-96.1-4.4-96.1-10,43-10,96.1-10S3247.2,4024.6,3247.2,4030.2Z" transform="translate(-2930.8 -3504.8)"/><path class="cls-147" d="M3246.8,4030.2c0,5.4-42.9,10-95.7,10s-95.7-4.4-95.7-10,42.9-10,95.7-10S3246.8,4024.6,3246.8,4030.2Z" transform="translate(-2930.8 -3504.8)"/><path class="cls-148" d="M3246.5,4030.2c0,5.4-42.7,9.8-95.4,9.8s-95.4-4.4-95.4-9.8,42.7-9.8,95.4-9.8S3246.5,4024.6,3246.5,4030.2Z" transform="translate(-2930.8 -3504.8)"/><ellipse class="cls-149" cx="220.3" cy="525.4" rx="95.1" ry="9.8"/><ellipse class="cls-150" cx="220.3" cy="525.4" rx="94.7" ry="9.8"/><ellipse class="cls-151" cx="220.3" cy="525.4" rx="94.4" ry="9.8"/><path class="cls-152" d="M3245.1,4030.2c0,5.4-42.2,9.8-94,9.8s-94-4.4-94-9.8,42.2-9.8,94-9.8S3245.1,4024.8,3245.1,4030.2Z" transform="translate(-2930.8 -3504.8)"/><path class="cls-153" d="M3245,4030.2c0,5.4-42,9.7-93.7,9.7s-93.7-4.4-93.7-9.7,42-9.7,93.7-9.7S3245,4024.8,3245,4030.2Z" transform="translate(-2930.8 -3504.8)"/><ellipse class="cls-154" cx="220.3" cy="525.4" rx="93.5" ry="9.7"/><ellipse class="cls-155" cx="220.3" cy="525.4" rx="93.2" ry="9.7"/><path class="cls-156" d="M3244,4030.2c0,5.3-41.5,9.7-92.9,9.7s-92.9-4.2-92.9-9.7,41.5-9.7,92.9-9.7S3244,4024.8,3244,4030.2Z" transform="translate(-2930.8 -3504.8)"/><path class="cls-157" d="M3243.6,4030.2c0,5.3-41.3,9.7-92.5,9.7s-92.5-4.2-92.5-9.7,41.3-9.7,92.5-9.7S3243.6,4024.8,3243.6,4030.2Z" transform="translate(-2930.8 -3504.8)"/><path class="cls-158" d="M3243.3,4030.2c0,5.3-41.3,9.5-92.2,9.5s-92.2-4.2-92.2-9.5,41.2-9.5,92.2-9.5S3243.3,4024.8,3243.3,4030.2Z" transform="translate(-2930.8 -3504.8)"/><ellipse class="cls-159" cx="220.3" cy="525.4" rx="91.8" ry="9.5"/><path class="cls-160" d="M3242.6,4030.2c0,5.3-41,9.5-91.5,9.5s-91.5-4.2-91.5-9.5,41-9.5,91.5-9.5S3242.6,4024.8,3242.6,4030.2Z" transform="translate(-2930.8 -3504.8)"/><path class="cls-161" d="M3242.3,4030.2c0,5.3-40.8,9.5-91.2,9.5s-91.2-4.2-91.2-9.5,40.8-9.5,91.2-9.5S3242.3,4025,3242.3,4030.2Z" transform="translate(-2930.8 -3504.8)"/><path class="cls-162" d="M3241.9,4030.2c0,5.3-40.7,9.5-90.8,9.5s-90.8-4.2-90.8-9.5,40.7-9.5,90.8-9.5S3241.9,4025,3241.9,4030.2Z" transform="translate(-2930.8 -3504.8)"/><path class="cls-163" d="M3241.6,4030.2c0,5.3-40.5,9.3-90.5,9.3s-90.5-4.2-90.5-9.3,40.5-9.3,90.5-9.3S3241.6,4025,3241.6,4030.2Z" transform="translate(-2930.8 -3504.8)"/><ellipse class="cls-164" cx="220.3" cy="525.4" rx="90.1" ry="9.3"/><ellipse class="cls-165" cx="220.3" cy="525.4" rx="90" ry="9.3"/><path class="cls-166" d="M3240.7,4030.2c0,5.1-40.2,9.3-89.6,9.3s-89.6-4.2-89.6-9.3,40.2-9.3,89.6-9.3S3240.7,4025,3240.7,4030.2Z" transform="translate(-2930.8 -3504.8)"/><path class="cls-167" d="M3240.4,4030.2c0,5.1-40,9.3-89.3,9.3s-89.3-4.1-89.3-9.3,40-9.3,89.3-9.3S3240.4,4025,3240.4,4030.2Z" transform="translate(-2930.8 -3504.8)"/><path class="cls-168" d="M3240.1,4030.2c0,5.1-39.8,9.1-89,9.1s-89-4.1-89-9.1,39.8-9.1,89-9.1S3240.1,4025,3240.1,4030.2Z" transform="translate(-2930.8 -3504.8)"/><path class="cls-169" d="M3239.7,4030.2c0,5.1-39.6,9.1-88.6,9.1s-88.6-4.1-88.6-9.1,39.6-9.1,88.6-9.1S3239.7,4025.1,3239.7,4030.2Z" transform="translate(-2930.8 -3504.8)"/><path class="cls-170" d="M3239.4,4030.2c0,5.1-39.5,9.1-88.3,9.1s-88.3-4.1-88.3-9.1,39.5-9.1,88.3-9.1S3239.4,4025.1,3239.4,4030.2Z" transform="translate(-2930.8 -3504.8)"/><path class="cls-171" d="M3239,4030.2c0,5.1-39.3,9.1-87.9,9.1s-87.9-4.1-87.9-9.1,39.3-9.1,87.9-9.1S3239,4025.1,3239,4030.2Z" transform="translate(-2930.8 -3504.8)"/><path class="cls-172" d="M3238.7,4030.2c0,5.1-39.3,9.1-87.6,9.1s-87.6-4.1-87.6-9.1,39.3-9.1,87.6-9.1S3238.7,4025.1,3238.7,4030.2Z" transform="translate(-2930.8 -3504.8)"/><path class="cls-173" d="M3238.4,4030.2c0,5.1-39.1,9-87.3,9s-87.3-4.1-87.3-9,39.1-9,87.3-9S3238.4,4025.1,3238.4,4030.2Z" transform="translate(-2930.8 -3504.8)"/><path class="cls-174" d="M3238,4030.2c0,4.9-39,9-86.9,9s-86.9-4.1-86.9-9,39-9,86.9-9S3238,4025.1,3238,4030.2Z" transform="translate(-2930.8 -3504.8)"/><ellipse class="cls-175" cx="220.3" cy="525.4" rx="86.6" ry="9"/><ellipse class="cls-176" cx="220.3" cy="525.4" rx="86.2" ry="9"/><path class="cls-177" d="M3237.2,4030.2c0,4.9-38.5,9-86.1,9s-86.1-4.1-86.1-9,38.5-9,86.1-9S3237.2,4025.1,3237.2,4030.2Z" transform="translate(-2930.8 -3504.8)"/><path class="cls-178" d="M3236.8,4030.2c0,4.9-38.3,8.8-85.7,8.8s-85.7-3.9-85.7-8.8,38.3-8.8,85.7-8.8S3236.8,4025.3,3236.8,4030.2Z" transform="translate(-2930.8 -3504.8)"/><path class="cls-179" d="M3236.5,4030.2c0,4.9-38.3,8.8-85.4,8.8s-85.4-3.9-85.4-8.8,38.3-8.8,85.4-8.8S3236.5,4025.3,3236.5,4030.2Z" transform="translate(-2930.8 -3504.8)"/><path class="cls-180" d="M3236.2,4030.2c0,4.9-38.1,8.8-85.1,8.8s-85.1-3.9-85.1-8.8,38.1-8.8,85.1-8.8S3236.2,4025.3,3236.2,4030.2Z" transform="translate(-2930.8 -3504.8)"/><path class="cls-181" d="M3235.8,4030.2c0,4.9-38,8.8-84.7,8.8s-84.7-3.9-84.7-8.8,38-8.8,84.7-8.8S3235.8,4025.3,3235.8,4030.2Z" transform="translate(-2930.8 -3504.8)"/><path class="cls-182" d="M3235.5,4030.2c0,4.9-37.8,8.8-84.4,8.8s-84.4-3.9-84.4-8.8,37.8-8.8,84.4-8.8S3235.5,4025.3,3235.5,4030.2Z" transform="translate(-2930.8 -3504.8)"/><path class="cls-183" d="M3235.1,4030.2c0,4.7-37.6,8.6-84,8.6s-84-3.9-84-8.6,37.6-8.6,84-8.6S3235.1,4025.3,3235.1,4030.2Z" transform="translate(-2930.8 -3504.8)"/><path class="cls-184" d="M3234.8,4030.2c0,4.7-37.4,8.6-83.7,8.6s-83.7-3.9-83.7-8.6,37.4-8.6,83.7-8.6S3234.8,4025.3,3234.8,4030.2Z" transform="translate(-2930.8 -3504.8)"/><path class="cls-185" d="M3234.5,4030.2c0,4.7-37.3,8.6-83.4,8.6s-83.4-3.9-83.4-8.6,37.3-8.6,83.4-8.6S3234.5,4025.3,3234.5,4030.2Z" transform="translate(-2930.8 -3504.8)"/><path class="cls-186" d="M3234.1,4030.2c0,4.7-37.3,8.6-83,8.6s-83-3.9-83-8.6,37.3-8.6,83-8.6S3234.1,4025.3,3234.1,4030.2Z" transform="translate(-2930.8 -3504.8)"/><path class="cls-187" d="M3234,4030.2c0,4.7-37.1,8.6-82.7,8.6s-82.7-3.9-82.7-8.6,37.1-8.6,82.7-8.6S3234,4025.5,3234,4030.2Z" transform="translate(-2930.8 -3504.8)"/><path class="cls-188" d="M3233.6,4030.2c0,4.7-36.9,8.5-82.5,8.5s-82.5-3.9-82.5-8.5,36.9-8.5,82.5-8.5S3233.6,4025.5,3233.6,4030.2Z" transform="translate(-2930.8 -3504.8)"/><path class="cls-189" d="M3233.3,4030.2c0,4.7-36.8,8.5-82.2,8.5s-82.2-3.9-82.2-8.5,36.8-8.5,82.2-8.5S3233.3,4025.5,3233.3,4030.2Z" transform="translate(-2930.8 -3504.8)"/><ellipse class="cls-190" cx="220.3" cy="525.4" rx="81.8" ry="8.5"/><path class="cls-191" d="M3232.6,4030.2c0,4.7-36.4,8.5-81.5,8.5s-81.5-3.7-81.5-8.5,36.4-8.5,81.5-8.5S3232.6,4025.5,3232.6,4030.2Z" transform="translate(-2930.8 -3504.8)"/><path class="cls-192" d="M3232.3,4030.2c0,4.6-36.3,8.5-81.2,8.5s-81.2-3.7-81.2-8.5,36.3-8.5,81.2-8.5S3232.3,4025.5,3232.3,4030.2Z" transform="translate(-2930.8 -3504.8)"/></g><path class="cls-193" d="M3107,3878.2l24.7,127.8-17.3-.8-10.7-65.1c-5.6-26.8-29-72.9-29-72.9Z" transform="translate(-2930.8 -3504.8)"/><path class="cls-193" d="M3147.9,3879.8l18.5,131.3,16.3-5.9-8.6-65.2c-2.4-27.3,0-67.3,0-67.3Z" transform="translate(-2930.8 -3504.8)"/><path class="cls-194" d="M3065.4,3690.5c-2.2,23.6-6.1,137.1-5.4,138.3l122,17.6c-0.2-4.6,18.3-140.1,16.3-147.9l-63.5,17.8Z" transform="translate(-2930.8 -3504.8)"/><polygon class="cls-195" points="161.7 108.6 198.5 110 198.7 100 159.7 101.3 161.7 108.6"/><polygon class="cls-196" points="163.1 105.9 199.8 107.3 199.8 97.3 160.9 98.6 163.1 105.9"/><polygon class="cls-195" points="248.5 120.3 215.4 109.8 218.3 101 252.5 114.5 248.5 120.3"/><polygon class="cls-196" points="246.8 117.6 213.9 107.1 216.6 98.3 250.8 111.8 246.8 117.6"/><path class="cls-193" d="M3059.9,3828.8s-0.3,30.5,9.8,39.1,69,31.3,102.8,7.5c7.3-6.3,10.3-21.9,9.5-31.2Z" transform="translate(-2930.8 -3504.8)"/><path class="cls-197" d="M3120.4,3630.5c-0.5,5.3-3.7,9.1-6.9,8.8s-5.4-4.9-4.7-10,3.7-9.1,6.9-8.8S3120.9,3625.3,3120.4,3630.5Z" transform="translate(-2930.8 -3504.8)"/><ellipse class="cls-197" cx="3153.6" cy="3633.4" rx="9.5" ry="5.6" transform="translate(-3733.2 2866.6) rotate(-83.7)"/><path d="M3118.4,3628.6c-0.5,4.4-2.5,7.6-4.6,7.5s-3.4-3.9-2.9-8.3,2.5-7.6,4.6-7.5S3118.9,3624.4,3118.4,3628.6Z" transform="translate(-2930.8 -3504.8)"/><path d="M3157.5,3632.4c-0.5,4.4-2.5,7.6-4.6,7.5s-3.2-3.9-2.9-8.3,2.5-7.6,4.6-7.5S3158,3628,3157.5,3632.4Z" transform="translate(-2930.8 -3504.8)"/><path class="cls-196" d="M3115.9,4002.6l-25.9,8.1s-20.5-3.2-24.9,8.3c-2.9,7.6-3.6,10.3-3.6,10.3l73-.3c0.3-6.6-1.9-24.6-1.9-24.6Z" transform="translate(-2930.8 -3504.8)"/><path class="cls-196" d="M3182.3,4002.6l25.9,8.1s20.5-3.2,24.9,8.3c2.7,7.6,3.6,10.3,3.6,10.3l-73-.3c-0.3-6.6,1.9-24.6,1.9-24.6Z" transform="translate(-2930.8 -3504.8)"/><polygon class="cls-198" points="230 330.4 237.8 352.1 242.2 360.6 286.8 344.6 297.3 335 284.4 311.1 284.4 311.1 284.4 311.1 282.9 308.4 277.9 309.1 255.2 300.6 254.2 313 230 330.4"/><path class="cls-199" d="M3215.1,3815.9h0l-1.5-2.7-4.9.7-9.1-2.7c1.5,4.2,10.7,28.8,15.8,39l2.2-.8,5.8-5.3,4.2-5.4Z" transform="translate(-2930.8 -3504.8)"/><path class="cls-200" d="M3196.8,3711.3c-0.2,2.7-.3,6.8-0.8,11.7,43.9,32.4,30.5,58.8,6.6,85.7,0,0,11.9,32.4,17.1,41.7C3302.2,3789.1,3216,3724.4,3196.8,3711.3Z" transform="translate(-2930.8 -3504.8)"/><path class="cls-201" d="M3204.5,3600c0-11.7-.8-20.8-2.4-26.8l-21.7-.8-3.7-.2c-24.1-1-48.3-2-72.3-2.9-2.4,0-4.6-.2-6.9-0.3l-25.9-1a200.1,200.1,0,0,0-3,24.2c-0.8,10.2-1.4,22.2-2,35.6,3.7-4.4,5.6-16.8,6.1-19.3,1.9-9.5,3.4-19.1,9.8-26.8,13.2-15.4,22.5-1.5,34.4,7.1s26.1,13.6,40.8,13a70.3,70.3,0,0,0,21.3-4.2c3.9-1.4,10.8-6.8,15.2-5.4,6.1,1.9,5.9,13,6.4,18,0.3,3.4-1,15.9,2.2,18l0.8,0.5C3204.3,3618.1,3204.6,3608.5,3204.5,3600Z" transform="translate(-2930.8 -3504.8)"/><path class="cls-196" d="M3215,3589.2a75.4,75.4,0,0,1-2.7,20.3c-1.2,4.4-3.6,14.2-8,16.4-2.4-4.4-.5-10-1-14.7s-0.8-10.5-3-14.9c-4.7-9.1-14.1-15.8-10.2-26.9,2.9-8.1,11.7-6.4,17.3-1.5S3214.8,3581.9,3215,3589.2Z" transform="translate(-2930.8 -3504.8)"/><path class="cls-202" d="M3212.9,3576.5a19.6,19.6,0,0,0-5.6-8.6,16.1,16.1,0,0,0-5.1-3.2c-5.6,3.4-9.8,10-11.7,16.4,2.4,5.3,6.8,9.8,9.7,15.2s2.7,10,3,14.9-1.4,10.2.8,14.4c4.9-7.3,3.9-22,2.2-28.6-1.2-4.6-3.2-8.1-1.2-12.9A17.9,17.9,0,0,1,3212.9,3576.5Z" transform="translate(-2930.8 -3504.8)"/><path class="cls-196" d="M3090.8,3540.7c-3.6,5.8-4.7,13.6-2.2,19.8s9.8,8.3,15.9,11a85.6,85.6,0,0,1,18.1,10.8c5.9,4.7,11.9,9.8,19.3,12,11.2,3.4,23.4,3,34.7.8,28.6-5.6,47.6-48.3,29.7-73.7,2,13.9-6.6,16.4-16.4,22.7,10-11.2,2.4-33-11.7-39.5,17.5,39-27.6,31.3-49.6,28.6C3116,3532.1,3098.6,3528.3,3090.8,3540.7Z" transform="translate(-2930.8 -3504.8)"/><path class="cls-196" d="M3075.4,3548.7a20.5,20.5,0,0,1,11,2.2c4.1,2,8.3,3.9,11.7,6.8s7.5,8.1,6.6,11.5-3,1.4-5.3,1.2c-4.1-.2-8.8,0-12.5,1.7-12.5,6.1-15.9,22.7-18,35.1-0.5,2.7-.3,6.4-2.4,8.6-5.4-3.9-5.3-16.3-6.4-22.4-2.4-12.5-2.9-29.8,5.9-40.2A13.7,13.7,0,0,1,3075.4,3548.7Z" transform="translate(-2930.8 -3504.8)"/><path class="cls-202" d="M3206.2,3521.9a24,24,0,0,1,.3,4.7c1.2,4.9,2.5,9.7,1.9,15.2a62.3,62.3,0,0,1-6.4,20.2c-4.4,8.1-10.3,16.8-19.3,20.5s-19,6.3-29.8,3.7-18.8-7.8-28.5-12-18.6-12-29.3-11.2a18.8,18.8,0,0,0-4.2.8c3.4,4.1,9,5.6,13.9,7.8a85.6,85.6,0,0,1,18.1,10.8c5.9,4.7,11.9,9.8,19.3,12,11.2,3.4,23.4,3,34.7.8C3205.2,3589.8,3229.7,3543.9,3206.2,3521.9Z" transform="translate(-2930.8 -3504.8)"/><path class="cls-202" d="M3094.8,3563.1c-8.6.7-19.5,7.1-23.4,15.1-5.6,11.2-3.6,23.4-3.6,35.4,0.7-2,.7-4.6,1.2-6.4,2-12.2,5.4-29,18-35.1,3.6-1.7,8.3-1.9,12.5-1.7,2.2,0.2,4.6,1.4,5.3-1.2s-0.3-3.2-1.4-5.1A24.7,24.7,0,0,0,3094.8,3563.1Z" transform="translate(-2930.8 -3504.8)"/><path class="cls-203" d="M3081.3,3559.2c5.3-.3,7.5-4.7,2-7.1s-12.4,1-15.4,6.1-1.9,8.8-2.7,13.9C3066.2,3563.4,3073.5,3559.7,3081.3,3559.2Z" transform="translate(-2930.8 -3504.8)"/><path class="cls-203" d="M3163.5,3564.3c-11.2,5.1-19.3,1.9-29.8-2.7-4.6-2-9.1-3.4-13.7-5.6-8.8-3.9-17.6-8.3-27.3-3.9-0.3-5.4,2.9-10.7,7.1-13.9a19.3,19.3,0,0,1,12.5-3.7c7.1,0.3,15.1,6.1,21.7,2.7-3.7,3.2-7.5,4.9-12.4,4.4s-10.2-2.5-12.5,1.7c8.8-4.4,23.2,8,30.7,11,11.4,4.7,24.2,9,34.7-.2C3170.6,3558.7,3168.9,3561.9,3163.5,3564.3Z" transform="translate(-2930.8 -3504.8)"/><path class="cls-204" d="M3084.3,3643.2s54.2,30.5,97.8,5.4c1.4,26.8-18.6,57.1-53.7,53.5C3098.4,3699.1,3082.8,3679.3,3084.3,3643.2Z" transform="translate(-2930.8 -3504.8)"/><path class="cls-205" d="M3100.1,3691c7.1,6.3,16.6,10,28.3,11.2s22.4-1.5,30.7-6.8c-8.1-9.3-10.7-12.5-27.6-12.7C3109.1,3682.7,3106,3688,3100.1,3691Z" transform="translate(-2930.8 -3504.8)"/><path class="cls-3" d="M3084.3,3643.2a57.2,57.2,0,0,0,0,7.6c9.8,6.3,52,30.7,97.1,9a48.7,48.7,0,0,0,.7-11C3138.6,3673.7,3084.3,3643.2,3084.3,3643.2Z" transform="translate(-2930.8 -3504.8)"/><path class="cls-206" d="M3084.3,3643.2a52.3,52.3,0,0,0,0,7.3c5.1-5.8,20.8,7.3,49.6,9.8s44.6-9.8,47.6-.8a58.3,58.3,0,0,0,.7-10.8C3138.6,3673.7,3084.3,3643.2,3084.3,3643.2Z" transform="translate(-2930.8 -3504.8)"/><path class="cls-3" d="M3099.3,3690.2c7.3,6.8,16.9,10.8,29.1,12,14.2,1.5,26.1-2.7,34.9-9.8C3136.5,3702.2,3105.9,3689,3099.3,3690.2Z" transform="translate(-2930.8 -3504.8)"/><polygon class="cls-199" points="194.8 301.1 202.9 315 226.3 289.9 214.2 229.2 212.9 212.5 194.8 301.1"/><polygon class="cls-196" points="189 219.8 174.3 283.3 197.3 310.9 221.7 286.3 210.9 220.4 189 219.8"/><polygon class="cls-196" points="187.3 205.9 186.3 219.9 213.1 223.3 213.9 206.5 187.3 205.9"/><polygon class="cls-207" points="211.9 226 210.9 220.4 189 219.8 188.1 223.5 211.9 226"/><polygon class="cls-196" points="185.1 208.2 184.3 221.3 215.6 224.7 216.4 209.3 185.1 208.2"/><path class="cls-208" d="M3147.2,3759.3l-29.8-25.2-3.7,16.1,36.4,27.1Zm-36.4,4.4-2,9,32.7,29.7,8.3-8.3Z" transform="translate(-2930.8 -3504.8)"/><path class="cls-209" d="M3142,3751.7a3.7,3.7,0,0,1-3.6,3.7l-25.9-1.4a3.8,3.8,0,0,1-3.2-4.1h0a3.7,3.7,0,0,1,3.6-3.7l25.9,1.4a3.7,3.7,0,0,1,3.2,4.1h0Z" transform="translate(-2930.8 -3504.8)"/><path class="cls-3" d="M3123.7,3750.8c0,1.4-.7,2.4-1.2,2.4l-8-.5c-0.5,0-1-1.2-.8-2.5h0c0-1.4.7-2.4,1.2-2.4l8,0.5c0.5,0,.8,1.2.8,2.5h0Z" transform="translate(-2930.8 -3504.8)"/><path class="cls-210" d="M2963.5,3755.9s0.5,39,60.7,26.9c57.3-11.5,32.5-84.9-4.9-79.5Z" transform="translate(-2930.8 -3504.8)"/><path class="cls-201" d="M3035.2,3753.5c-4.9-6.6-32.7-8.8-59.3-9.3l-12.4,11.7a35.9,35.9,0,0,0,16.9,24.2c6.3-1,20-4.4,20.3-14.9C3019.8,3770.1,3044.9,3766.9,3035.2,3753.5Z" transform="translate(-2930.8 -3504.8)"/><path class="cls-193" d="M3037.2,3752.3a7.6,7.6,0,0,1-7.3,8l-66.2,2.5a7.7,7.7,0,0,1-8-7.5l-4.7-123.9a7.6,7.6,0,0,1,7.3-8l66.2-2.5a7.6,7.6,0,0,1,8,7.3Z" transform="translate(-2930.8 -3504.8)"/><circle class="cls-211" cx="65.5" cy="244" r="7.6"/><path class="cls-193" d="M3002.3,3748.6a6.2,6.2,0,0,0-6.4-5.9,6.3,6.3,0,0,0-5.9,6.3,6.2,6.2,0,0,0,6.3,5.9A6,6,0,0,0,3002.3,3748.6Z" transform="translate(-2930.8 -3504.8)"/><path class="cls-212" d="M3032.2,3733.5a3.4,3.4,0,0,1-3.4,3.6l-66.1,2.4a3.4,3.4,0,0,1-3.6-3.4l-3.6-97.6a3.4,3.4,0,0,1,3.4-3.6l66.1-2.4a3.4,3.4,0,0,1,3.6,3.4Z" transform="translate(-2930.8 -3504.8)"/><path class="cls-211" d="M2998.1,3628a1.7,1.7,0,0,1-1.7,1.9l-9.1.3a1.7,1.7,0,0,1-1.9-1.7h0a1.7,1.7,0,0,1,1.7-1.9l9.1-.3a1.7,1.7,0,0,1,1.9,1.7h0Z" transform="translate(-2930.8 -3504.8)"/><path class="cls-213" d="M3029.6,3664.4l-1-28.5a3.5,3.5,0,0,0-3.6-3.4l-66.1,2.4a3.5,3.5,0,0,0-3.4,3.6l2.5,68.5C2972.7,3698.3,3003.5,3679.6,3029.6,3664.4Z" transform="translate(-2930.8 -3504.8)"/><path class="cls-201" d="M2992.3,3738.4c-0.3-7.3-4.6-14.6-11.4-15.4,16.4-29.8-18.3-26.4-18.3-26.4l8.6,42.7Z" transform="translate(-2930.8 -3504.8)"/><path class="cls-210" d="M2954.9,3756.4l25.1-6.3c7.6-2.5,12.5-23.4.2-26.1s-33.7,4.7-38.1,6.4S2929,3751.8,2954.9,3756.4Z" transform="translate(-2930.8 -3504.8)"/><path class="cls-210" d="M2963.4,3778.1c9.5,1.9,23,1.5,23,1.5,7.1-.2,16.9-16.4,7.1-22s-30-5.1-34.2-4.9S2941.7,3773.7,2963.4,3778.1Z" transform="translate(-2930.8 -3504.8)"/><path class="cls-210" d="M2947.8,3729.3l23.9-6.1c7.3-2.4,11.9-23.2.2-25.9s-32.2,3.9-36.3,6.1S2923,3724.6,2947.8,3729.3Z" transform="translate(-2930.8 -3504.8)"/><path class="cls-210" d="M3058.1,3742.7c-11.5-38.1,17.8-51.2-13.4-55.7-25.4-3.7-16.4,42.4-5.9,50.3" transform="translate(-2930.8 -3504.8)"/></svg>