<svg id="Pagina_inicia_Movil" data-name="Pagina inicia Movil" xmlns="http://www.w3.org/2000/svg" viewBox="0 0 62.8 62.8"><defs><style>.cls-1{fill:#12afaf;}.cls-2{fill:#fff;}</style></defs><title>servicio-2</title><circle class="cls-1" cx="31.4" cy="31.4" r="31.4"/><path class="cls-2" d="M1031,2084.6v-4.8a0.8,0.8,0,0,1,.2-0.6l0.6-.2h0.3v-1.6a3.8,3.8,0,0,1,7.6,0v1.6h0.3l0.6,0.2a0.8,0.8,0,0,1,.2.6v4.9a0.8,0.8,0,0,1-.2.6l-0.6.2h-8.1l-0.6-.2A0.7,0.7,0,0,1,1031,2084.6Zm2.7-5.7h4.3v-1.6a2.1,2.1,0,0,0-.6-1.5,2,2,0,0,0-1.5-.6,2.1,2.1,0,0,0-1.5.6,2,2,0,0,0-.6,1.5v1.6h-0.1Z" transform="translate(-1004.5 -2051.8)"/><path class="cls-2" d="M1017.8,2092.1v-20.5a3,3,0,0,1,.9-2.1,2.9,2.9,0,0,1,2.1-.9h30.1a3,3,0,0,1,2.1.9,2.9,2.9,0,0,1,.9,2.1v20.5a3,3,0,0,1-.9,2.1,2.9,2.9,0,0,1-2.1.9h-10.2a4,4,0,0,0,.3,1.4l0.6,1.3a2.3,2.3,0,0,1,.3.8,1.2,1.2,0,0,1-1.2,1.2H1031a1.2,1.2,0,0,1-1.2-1.2,2.2,2.2,0,0,1,.3-0.8l0.6-1.3a4.1,4.1,0,0,0,.3-1.5h-10.2a3,3,0,0,1-2.1-.9A2.9,2.9,0,0,1,1017.8,2092.1Zm2.4-4.8a0.6,0.6,0,0,0,.2.4l0.4,0.2h30.1l0.4-.2a0.6,0.6,0,0,0,.2-0.4v-15.6a0.6,0.6,0,0,0-.2-0.4l-0.4-.2h-30.1l-0.4.2a0.6,0.6,0,0,0-.2.4v15.6h0Z" transform="translate(-1004.5 -2051.8)"/></svg>