<svg id="Pagina_inicia_Movil" data-name="Pagina inicia Movil" xmlns="http://www.w3.org/2000/svg" viewBox="0 0 62.8 62.8"><defs><style>.cls-1{fill:#12afaf;}.cls-2{fill:#fff;}</style></defs><title>servicio-3</title><circle class="cls-1" cx="31.4" cy="31.4" r="31.4"/><path class="cls-2" d="M1031,2174.4v-4.9a0.8,0.8,0,0,1,.2-0.6l0.6-.2h0.3v-1.6a3.8,3.8,0,0,1,7.6,0v1.6h0.3l0.6,0.2a0.8,0.8,0,0,1,.2.6v4.9a0.8,0.8,0,0,1-.2.6l-0.6.2h-8.2l-0.6-.2A0.7,0.7,0,0,1,1031,2174.4Zm2.7-5.7h4.3v-1.6a2.1,2.1,0,0,0-.6-1.5,2,2,0,0,0-1.5-.6,2.1,2.1,0,0,0-1.5.6,2,2,0,0,0-.6,1.5v1.6h-0.1Z" transform="translate(-1004.5 -2137.8)"/><path class="cls-2" d="M1016.6,2177.3a20.4,20.4,0,0,1-1.7-8.2,21.1,21.1,0,0,1,1.7-8.2,22.2,22.2,0,0,1,4.5-6.7,21.4,21.4,0,0,1,14.9-6.2,21.1,21.1,0,0,1,8.2,1.7,22.2,22.2,0,0,1,6.7,4.5,21.4,21.4,0,0,1,6.2,14.9,21.1,21.1,0,0,1-1.7,8.2,22.2,22.2,0,0,1-4.5,6.7,21.4,21.4,0,0,1-14.9,6.1,21.1,21.1,0,0,1-8.2-1.7,22.2,22.2,0,0,1-6.7-4.5A21.4,21.4,0,0,1,1016.6,2177.3Zm3.5-16.7a18.1,18.1,0,0,0,0,17l4.5-4.5a12.3,12.3,0,0,1-.7-3.9,12.1,12.1,0,0,1,.7-3.9l-4.5-4.6h0Zm9.6,2.1a9,9,0,1,0,6.4-2.7,8.7,8.7,0,0,0-6.4,2.7h0Zm-2.1-9.6,4.5,4.5a12.3,12.3,0,0,1,3.9-.7,12.1,12.1,0,0,1,3.9.7l4.6-4.5a18.1,18.1,0,0,0-17,.1h0.1Zm0,31.9a18.1,18.1,0,0,0,17,0l-4.5-4.5a12.3,12.3,0,0,1-3.9.7,12.1,12.1,0,0,1-3.9-.7Zm19.9-12,4.5,4.5a18.1,18.1,0,0,0,0-17l-4.5,4.5a12.1,12.1,0,0,1-.1,8h0.1Z" transform="translate(-1004.5 -2137.8)"/></svg>