<svg id="Pagina_inicia_Movil" data-name="Pagina inicia Movil" xmlns="http://www.w3.org/2000/svg" viewBox="0 0 62.2 62.2"><defs><style>.cls-1{fill:#12afaf;}.cls-2{fill:#fff;}</style></defs><title>servicio-1</title><circle class="cls-1" cx="31.1" cy="31.1" r="31.1"/><path class="cls-2" d="M1017.9,2001.1v-3.3a0.5,0.5,0,0,1,0-.4l0.2-.2,2.8-.4,0.6-1.4-1.6-2.1a0.7,0.7,0,0,1-.1-0.4,0.5,0.5,0,0,1,.1-0.4l1.5-1.6a3.6,3.6,0,0,1,1.4-1.1h0.4l2.1,1.6,1.4-.6q0.1-1.5.4-3a0.9,0.9,0,0,1,.5-0.7h3.4l0.4,0.4a0.9,0.9,0,0,1,.2.5l0.4,2.8,1.4,0.6,2.1-1.6h0.7c1.7,1.6,2.6,2.5,2.6,2.9a0.7,0.7,0,0,1-.1.4l-0.8,1-0.8,1.1,0.6,1.5,2.7,0.4,0.4,0.2,0.2,0.4v3.3l-0.2.4-0.4.2-2.8.4a9.3,9.3,0,0,1-.6,1.4l1.6,2.1a0.6,0.6,0,0,1,.1.4,0.5,0.5,0,0,1-.1.4l-1.5,1.6a3.6,3.6,0,0,1-1.4,1.1h-0.4l-2.1-1.6-1.4.6c-0.1,1.3-.3,2.4-0.4,3a0.8,0.8,0,0,1-.5.6h-3.3l-0.4-.4-0.2-.4-0.4-2.8-1.4-.6-2.1,1.6h-0.7c-1.7-1.6-2.6-2.5-2.6-2.9a0.7,0.7,0,0,1,.1-0.4l0.7-.9,0.8-1.1a9.1,9.1,0,0,1-.6-1.5l-2.7-.4-0.2-.2A1,1,0,0,1,1017.9,2001.1Zm8-4.9a4.2,4.2,0,1,1,.1,0h-0.1Zm14.9-4.1c-1.8-.2-2.9-0.4-2.9-0.6V1989c0-.2,1.1-0.4,2.9-0.6l0.7-.9a8.4,8.4,0,0,1-.9-2.5h0.1l0.6-.4,1.1-.6,0.5-.3a2.6,2.6,0,0,1,.8.8l0.9,1.2h1.1l1.7-2h0.1l2.2,1.2h0.1a9.6,9.6,0,0,1-.9,2.5l0.4,0.9c1.8,0.2,2.5.4,2.5,0.6v2.5c0,0.2-.7.4-2.5,0.6l-0.5.9a10.5,10.5,0,0,1,1,2.5h-0.1l-2.2,1.3a2.6,2.6,0,0,1-.8-0.8l-0.9-1.2h-1.1l-0.9,1.2a2.6,2.6,0,0,1-.8.8l-2.2-1.3h-0.1a7.5,7.5,0,0,1,.8-2.5l-0.6-.9h-0.1Zm0,18.4c-1.8-.2-2.9-0.4-2.9-0.6v-2.5c0-.2,1.1-0.4,2.9-0.6l0.7-.9a8.4,8.4,0,0,1-.9-2.5h0.1l0.6-.4,1.1-.6,0.5-.3a2.6,2.6,0,0,1,.8.8l0.9,1.2h1.1l1.7-2h0.1l2.2,1.2h0.1a9.6,9.6,0,0,1-.9,2.5l0.4,0.9c1.8,0.2,2.5.4,2.5,0.6v2.5c0,0.2-.7.4-2.5,0.6l-0.5.9a10.5,10.5,0,0,1,1,2.5h-0.1l-2.2,1.3a2.6,2.6,0,0,1-.8-0.8l-0.9-1.2h-1.1l-0.9,1.2a2.6,2.6,0,0,1-.8.8l-2.2-1.3h-0.1a7.5,7.5,0,0,1,.8-2.5l-0.6-.9h-0.1Zm2.2-20.2a2.3,2.3,0,1,0,.7-1.6,2.2,2.2,0,0,0-.7,1.5h0Zm0,18.4a2.3,2.3,0,1,0,.7-1.6,2.2,2.2,0,0,0-.7,1.5h0Z" transform="translate(-1003.8 -1968.3)"/></svg>